<?xml version="1.0" encoding="UTF-8"?>
<svg version="1.1" xmlns="http://www.w3.org/2000/svg" width="170px" height="170px" viewBox="40 0 650 650">
<path d="M0 0 C0.83926025 -0.00067474 1.67852051 -0.00134949 2.54321289 -0.00204468 C24.56429124 0.02595531 45.56278555 2.63353891 66.875 8.25 C68.13256104 8.58040283 68.13256104 8.58040283 69.41552734 8.91748047 C107.5216665 19.15594947 142.61413259 38.50023325 171.63671875 65.1953125 C173.74539527 67.13102603 175.89286328 69.00819976 178.0625 70.875 C193.78574873 84.60916305 206.82365213 101.61392761 217.875 119.25 C218.48939941 120.22743164 218.48939941 120.22743164 219.11621094 121.22460938 C255.28149642 179.32621557 265.61109553 249.82431557 250.40844727 316.28051758 C240.4423496 357.52767816 220.55940504 395.929317 191.875 427.25 C190.73300913 428.5142653 189.59108259 429.77858872 188.44921875 431.04296875 C183.44812328 436.54059132 178.45567292 441.93541077 172.734375 446.69921875 C170.71700263 448.38177512 168.80532904 450.15593692 166.875 451.9375 C129.24223697 485.12044308 80.46387932 505.34978404 30.875 511.25 C30.18269287 511.3442627 29.49038574 511.43852539 28.77709961 511.53564453 C19.63046096 512.64921766 10.38720512 512.4939214 1.1875 512.5 C0.27115784 512.50067474 -0.64518433 512.50134949 -1.58929443 512.50204468 C-15.65407278 512.48560129 -29.27819186 511.89177299 -43.125 509.25 C-44.0104248 509.0943457 -44.89584961 508.93869141 -45.80810547 508.77832031 C-80.89159596 502.53765682 -114.87520117 488.61235996 -144.125 468.25 C-144.69412109 467.85506348 -145.26324219 467.46012695 -145.84960938 467.05322266 C-154.40687816 461.0365559 -162.28835365 454.16162807 -170.125 447.25 C-170.64594238 446.79367187 -171.16688477 446.33734375 -171.70361328 445.8671875 C-219.6411986 403.70799964 -249.49419289 341.90958576 -254.92871094 278.47753906 C-257.80901903 231.11724926 -250.12178797 185.01923049 -229.125 142.25 C-228.57392578 141.12706543 -228.57392578 141.12706543 -228.01171875 139.98144531 C-212.35183319 108.48183453 -188.94108108 78.85019704 -161.125 57.25 C-160.11953125 56.45078125 -159.1140625 55.6515625 -158.078125 54.828125 C-120.81141377 25.40401546 -76.30650372 6.91760404 -29.125 1.25 C-28.35140137 1.1557373 -27.57780273 1.06147461 -26.78076172 0.96435547 C-17.87331007 0.01538168 -8.94813685 0.00648703 0 0 Z " fill="#EEB084" transform="translate(357.125,60.75)"/>
<path d="M0 0 C0.83926025 -0.00067474 1.67852051 -0.00134949 2.54321289 -0.00204468 C24.56429124 0.02595531 45.56278555 2.63353891 66.875 8.25 C68.13256104 8.58040283 68.13256104 8.58040283 69.41552734 8.91748047 C107.5216665 19.15594947 142.61413259 38.50023325 171.63671875 65.1953125 C173.74539527 67.13102603 175.89286328 69.00819976 178.0625 70.875 C193.78574873 84.60916305 206.82365213 101.61392761 217.875 119.25 C218.48939941 120.22743164 218.48939941 120.22743164 219.11621094 121.22460938 C255.28149642 179.32621557 265.61109553 249.82431557 250.40844727 316.28051758 C240.4423496 357.52767816 220.55940504 395.929317 191.875 427.25 C190.73300913 428.5142653 189.59108259 429.77858872 188.44921875 431.04296875 C183.4663118 436.52059698 178.50061004 441.9226951 172.78125 446.6484375 C171.32145424 447.87490525 169.91355354 449.16337413 168.53125 450.4765625 C167.34015625 451.60191406 167.34015625 451.60191406 166.125 452.75 C165.40828125 453.4409375 164.6915625 454.131875 163.953125 454.84375 C161.875 456.25 161.875 456.25 159.96679688 455.97460938 C157.81439446 455.22900592 156.21220037 454.33571879 154.328125 453.0625 C153.65692627 452.61575928 152.98572754 452.16901855 152.29418945 451.70874023 C151.57835693 451.22735596 150.86252441 450.74597168 150.125 450.25 C123.31335818 432.6320653 94.49050326 420.48919457 63.18383789 413.32714844 C54.44351236 411.22978288 54.44351236 411.22978288 51.875 407.25 C51.125 404 51.125 404 50.875 401.25 C51.42212646 401.0547876 51.96925293 400.8595752 52.53295898 400.65844727 C75.37551667 392.43207351 94.29691872 381.96072469 112.875 366.25 C113.53242188 365.71632813 114.18984375 365.18265625 114.8671875 364.6328125 C119.39152368 360.91280275 123.11499787 356.72871481 126.875 352.25 C127.64972656 351.363125 128.42445313 350.47625 129.22265625 349.5625 C135.53991788 342.2200259 140.93810617 334.58143237 145.875 326.25 C146.21772949 325.67443359 146.56045898 325.09886719 146.91357422 324.50585938 C153.85574567 312.66196323 159.53427778 299.56482895 162.9296875 286.24609375 C164.21501525 282.17234835 166.31763591 281.50755798 169.875 279.25 C175.2865866 273.60351388 177.70848915 267.16443065 180 259.8125 C180.33837891 258.75426025 180.67675781 257.69602051 181.02539062 256.60571289 C188.90054683 233.83460955 188.90054683 233.83460955 186.3125 210.6875 C184.66902194 207.89535447 182.93031477 206.56953306 180.25 204.8125 C177.01631533 202.2379103 176.37204688 199.945215 175.88061523 195.88354492 C175.60583473 192.84775875 175.36123478 189.80987301 175.1171875 186.77148438 C172.2379904 156.79532742 160.75300828 127.43294851 142.875 103.25 C142.47410156 102.69119141 142.07320313 102.13238281 141.66015625 101.55664062 C120.4522764 72.11630901 90.33760822 50.17409628 55.89111328 38.91552734 C54.14357643 38.33865819 52.41178447 37.71450252 50.68359375 37.08203125 C24.58193733 28.01074986 -8.26533272 26.74011881 -35.125 33.25 C-36.23875 33.49943359 -36.23875 33.49943359 -37.375 33.75390625 C-67.39862454 40.50922177 -95.31877042 54.56619298 -117.62109375 75.8671875 C-119.62811414 77.7771445 -121.64999662 79.52590846 -123.8125 81.25 C-128.58786064 85.2969158 -132.29518633 90.33239052 -136.125 95.25 C-136.88167969 96.21421875 -137.63835937 97.1784375 -138.41796875 98.171875 C-159.54954439 125.66838306 -175.3411959 161.7017839 -174.44677734 196.97387695 C-174.4609375 198.9140625 -174.4609375 198.9140625 -175.125 202.25 C-178.01953125 204.51953125 -178.01953125 204.51953125 -181.125 206.25 C-187.15164709 214.23123534 -186.78126538 221.39779865 -185.69921875 231.046875 C-184.46533724 239.47771433 -182.29438765 247.56331486 -179.75 255.6875 C-179.47019287 256.58645996 -179.19038574 257.48541992 -178.90209961 258.41162109 C-175.77763385 268.91819767 -175.77763385 268.91819767 -169.56995392 277.57190132 C-167.61263606 279.84503437 -167.74884054 281.23373528 -167.74645996 284.20870972 C-167.73825729 285.2321347 -167.73005463 286.25555969 -167.72160339 287.30999756 C-167.72775162 288.43214661 -167.73389984 289.55429565 -167.74023438 290.71044922 C-167.7348616 291.89279144 -167.72948883 293.07513367 -167.72395325 294.29330444 C-167.71159551 297.53725568 -167.71225614 300.78091323 -167.71768379 304.02487326 C-167.71946744 307.42053406 -167.70206012 310.81608568 -167.68591309 314.21170044 C-167.64803792 322.8494517 -167.63525841 331.48717844 -167.625 340.125 C-167.61392705 349.44325575 -167.59855681 358.76138151 -167.55428743 368.079548 C-167.53894693 371.45947697 -167.53002403 374.83917882 -167.53569031 378.21914291 C-167.54020211 381.98984566 -167.52684952 385.76010413 -167.50976562 389.53076172 C-167.51591385 390.6488623 -167.52206207 391.76696289 -167.52839661 392.91894531 C-167.52019394 393.94800995 -167.51199127 394.97707458 -167.50354004 396.037323 C-167.50282753 396.92848753 -167.50211502 397.81965206 -167.50138092 398.73782158 C-167.03849072 401.82741172 -165.93353692 403.72388731 -164.125 406.25 C-161.76805461 407.4284727 -160.33741172 407.38725868 -157.70846558 407.40821838 C-156.7801593 407.4180072 -155.85185303 407.42779602 -154.89541626 407.43788147 C-153.36333023 407.44651466 -153.36333023 407.44651466 -151.80029297 407.45532227 C-150.19051575 407.47017166 -150.19051575 407.47017166 -148.54821777 407.48532104 C-144.98789707 407.51700158 -141.42756301 407.54171938 -137.8671875 407.56640625 C-135.40381516 407.58697012 -132.9404464 407.60796643 -130.4770813 407.62937927 C-123.98336679 407.68465853 -117.48962012 407.73404196 -110.99584961 407.78222656 C-104.37350594 407.8323989 -97.75120914 407.88810721 -91.12890625 407.94335938 C-78.12764445 408.05101253 -65.12634267 408.15262943 -52.125 408.25 C-54.62290385 411.99685578 -55.82117037 411.97089542 -60.109375 413.01171875 C-61.34341064 413.32141602 -62.57744629 413.63111328 -63.84887695 413.95019531 C-64.8333934 414.19074646 -64.8333934 414.19074646 -65.83779907 414.43615723 C-97.28104853 422.17414992 -130.11831125 434.18699439 -155.26342773 455.21533203 C-157.125 456.25 -157.125 456.25 -159.20239258 456.04101562 C-162.1514465 454.82769058 -164.0687794 452.80602577 -166.375 450.625 C-167.35353981 449.70896532 -168.33271029 448.7936039 -169.3125 447.87890625 C-170.7046875 446.57759766 -170.7046875 446.57759766 -172.125 445.25 C-173.53530269 444.01353671 -174.95115087 442.78333939 -176.375 441.5625 C-192.08379078 427.86929745 -205.09500979 410.85198919 -216.125 393.25 C-216.73939941 392.27256836 -216.73939941 392.27256836 -217.36621094 391.27539062 C-237.16585339 359.46612898 -249.83028831 323.51417321 -254.125 286.25 C-254.2178125 285.47422607 -254.310625 284.69845215 -254.40625 283.89916992 C-259.55472071 235.34265551 -250.60491611 186.00333428 -229.125 142.25 C-228.57392578 141.12706543 -228.57392578 141.12706543 -228.01171875 139.98144531 C-212.35183319 108.48183453 -188.94108108 78.85019704 -161.125 57.25 C-160.11953125 56.45078125 -159.1140625 55.6515625 -158.078125 54.828125 C-120.81141377 25.40401546 -76.30650372 6.91760404 -29.125 1.25 C-28.35140137 1.1557373 -27.57780273 1.06147461 -26.78076172 0.96435547 C-17.87331007 0.01538168 -8.94813685 0.00648703 0 0 Z " fill="#401F4B" transform="translate(357.125,60.75)"/>
<path d="M0 0 C1.0725705 0.00231125 1.0725705 0.00231125 2.16680908 0.00466919 C31.46783841 0.15364647 59.51297248 7.02152398 85.1875 21.375 C86.32316406 21.96410156 87.45882813 22.55320312 88.62890625 23.16015625 C128.81652106 44.69413415 158.27611822 84.4994015 171.6171875 127.625 C177.38049164 147.70817025 179.62907532 168.05012534 178.875 188.875 C178.83877493 190.2187388 178.80296601 191.56248889 178.76757812 192.90625 C178.72439453 194.185 178.68121094 195.46375 178.63671875 196.78125 C178.59893311 197.92916016 178.56114746 199.07707031 178.5222168 200.25976562 C178.19331598 203.32087021 177.48042589 205.59753148 176.1875 208.375 C175.5275 208.375 174.8675 208.375 174.1875 208.375 C174.1875 209.035 174.1875 209.695 174.1875 210.375 C170.68688925 212.12530538 167.00693966 211.93576602 163.1875 211.375 C160.45294576 210.11134277 158.18809636 208.63757922 156.1875 206.375 C155.5 204.203125 155.5 204.203125 155.1875 202.375 C153.8675 202.045 152.5475 201.715 151.1875 201.375 C151.1875 200.715 151.1875 200.055 151.1875 199.375 C150.32125 199.0346875 150.32125 199.0346875 149.4375 198.6875 C146.59219122 197.02773655 145.25096666 194.95433333 143.1875 192.375 C140.59819103 189.95000166 137.88912594 187.67316951 135.1875 185.375 C134.61902344 184.85679687 134.05054688 184.33859375 133.46484375 183.8046875 C129.35139067 180.08993791 124.97512828 177.35860316 120.12890625 174.671875 C119.48824219 174.24390625 118.84757812 173.8159375 118.1875 173.375 C118.1875 172.715 118.1875 172.055 118.1875 171.375 C117.52878906 171.27058594 116.87007813 171.16617188 116.19140625 171.05859375 C111.65312303 170.02582449 107.37923629 168.30581407 103.04101562 166.63476562 C92.20807512 162.64784779 81.31068445 162.08089049 69.86035156 162.10375977 C68.4658376 162.09936043 67.07132626 162.09405394 65.67681885 162.08792114 C62.69771984 162.07651228 59.71869109 162.07096849 56.73957062 162.07003975 C52.01265663 162.0680794 47.28588539 162.04991914 42.559021 162.02928162 C30.81925393 161.98035734 19.07944846 161.94928585 7.33959961 161.92797852 C-1.79179677 161.91138132 -10.92306898 161.88836763 -20.05438256 161.84495777 C-24.73656728 161.82339495 -29.41851483 161.81510327 -34.10074568 161.81735051 C-37.03406207 161.81566325 -39.96722827 161.80149136 -42.90048981 161.78413773 C-44.87252747 161.77602652 -46.84460886 161.78239834 -48.81665039 161.789505 C-60.73810529 161.69494199 -73.30589283 160.32356076 -84.1875 155.125 C-85.1787085 154.66939697 -85.1787085 154.66939697 -86.18994141 154.20458984 C-95.24062376 149.91486286 -102.48720821 144.00462366 -109.78125 137.1953125 C-111.68344078 135.32958126 -111.68344078 135.32958126 -113.8125 134.375 C-113.79155273 134.964021 -113.77060547 135.55304199 -113.74902344 136.15991211 C-113.6649131 138.87726161 -113.61354533 141.59433609 -113.5625 144.3125 C-113.52898437 145.23869141 -113.49546875 146.16488281 -113.4609375 147.11914062 C-113.34845355 155.13362173 -115.394814 160.74847099 -119.8125 167.375 C-120.4725 167.375 -121.1325 167.375 -121.8125 167.375 C-121.8125 168.035 -121.8125 168.695 -121.8125 169.375 C-128.17424503 172.18909844 -133.30667016 172.78415499 -140.21875 172.66796875 C-141.1840564 172.66372391 -142.14936279 172.65947906 -143.1439209 172.65510559 C-146.2004083 172.63843097 -149.25621485 172.60079992 -152.3125 172.5625 C-154.39582375 172.54743866 -156.47915793 172.5337528 -158.5625 172.52148438 C-163.64609215 172.48856424 -168.72918099 172.43686016 -173.8125 172.375 C-173.95564031 163.48854541 -174.06656934 154.82695454 -172.375 146.0625 C-172.20307129 145.1564502 -172.03114258 144.25040039 -171.85400391 143.31689453 C-163.97488556 104.85666391 -143.67184431 67.29577633 -112.8125 42.375 C-112.31911133 41.96926758 -111.82572266 41.56353516 -111.31738281 41.14550781 C-103.20989175 34.49382141 -94.93811117 28.58809943 -85.8125 23.375 C-84.68714844 22.71886719 -83.56179688 22.06273438 -82.40234375 21.38671875 C-57.31702807 7.13527079 -28.77453863 -0.09481666 0 0 Z " fill="#EEC261" transform="translate(355.8125,89.625)"/>
<path d="M0 0 C3.42578376 1.61671226 5.65994694 3.46554529 8.375 6.125 C30.01128938 25.9423093 56.46412635 26.44792412 84.17318726 26.40731621 C88.11615222 26.40550944 92.05902741 26.42303109 96.00195312 26.43908691 C106.00128961 26.47668365 116.0006037 26.48970354 126 26.5 C136.80158406 26.51112248 147.60305584 26.52672818 158.4045639 26.57071257 C162.3128139 26.58592699 166.22087062 26.59503732 170.12915039 26.58930969 C207.22329205 26.53799545 207.22329205 26.53799545 224 33.6875 C224.78632813 34.00783203 225.57265625 34.32816406 226.3828125 34.65820312 C228.26073775 35.4254043 230.13131206 36.21056586 232 37 C232 37.66 232 38.32 232 39 C232.88816406 39.25394531 233.77632812 39.50789063 234.69140625 39.76953125 C242.16252881 42.5480479 248.11686579 48.83845771 253.52734375 54.5546875 C255.14273835 56.23015602 255.14273835 56.23015602 258 58 C258 58.66 258 59.32 258 60 C258.99 60.33 259.98 60.66 261 61 C262.66666667 63 264.33333333 65 266 67 C266.99 67.33 267.98 67.66 269 68 C269.4021875 68.8971875 269.4021875 68.8971875 269.8125 69.8125 C271.65546719 73.20743957 273.53090652 74.29588391 277 76 C280.6929959 76.32510555 284.30354429 76.23678364 288 76 C288 75.34 288 74.68 288 74 C288.66 74 289.32 74 290 74 C290.94252553 69.95820902 291.19295494 66.09365556 291.31640625 61.94921875 C291.33718735 61.29041214 291.35796844 60.63160553 291.37937927 59.95283508 C291.44435489 57.86448815 291.50351575 55.77602388 291.5625 53.6875 C291.60573479 52.2649622 291.6493506 50.84243594 291.69335938 49.41992188 C291.79998216 45.94673703 291.90139348 42.47342274 292 39 C297.5079263 40.94668752 300.51355147 43.98048957 303.12109375 49.27734375 C307.98477113 64.34393544 300.68813234 82.29184684 296.125 96.5625 C295.80982422 97.57368896 295.49464844 98.58487793 295.16992188 99.62670898 C292.38533614 108.02580639 288.47827374 114.94711234 281 120 C277.23699626 121.25433458 273.72789091 121.10695422 269.8125 121.0625 C269.06291016 121.05798828 268.31332031 121.05347656 267.54101562 121.04882812 C265.69397617 121.03706354 263.84697787 121.01912865 262 121 C261.8865625 122.01320313 261.773125 123.02640625 261.65625 124.0703125 C259.11758305 139.272092 249.80056251 156.29008234 239.8203125 167.875 C238.11665707 169.86381663 236.66365517 171.90309586 235.1875 174.0625 C231.29081179 179.30032481 226.16523789 183.07982634 221 187 C220.22914063 187.59683594 219.45828125 188.19367188 218.6640625 188.80859375 C190.2554822 209.79991674 151.89665464 219.05337944 117.03271484 213.82128906 C90.60168077 209.47657578 66.38618795 200.74881398 46 183 C45.24203125 182.46117187 44.4840625 181.92234375 43.703125 181.3671875 C43.14109375 180.91601562 42.5790625 180.46484375 42 180 C42 179.34 42 178.68 42 178 C41.34 178 40.68 178 40 178 C40 177.34 40 176.68 40 176 C39.34 176 38.68 176 38 176 C36.4921875 174.3203125 36.4921875 174.3203125 34.875 172.125 C34.33617187 171.40570313 33.79734375 170.68640625 33.2421875 169.9453125 C32 168 32 168 32 166 C31.34 166 30.68 166 30 166 C28.8425293 164.53808594 28.8425293 164.53808594 27.57421875 162.484375 C27.10927002 161.73285156 26.64432129 160.98132813 26.1652832 160.20703125 C25.67761475 159.39621094 25.18994629 158.58539063 24.6875 157.75 C24.1927417 156.93402344 23.6979834 156.11804688 23.18823242 155.27734375 C14 139.84973816 14 139.84973816 14 134 C14.81082031 133.90203125 15.62164062 133.8040625 16.45703125 133.703125 C27.4242723 132.2221006 36.63321197 130.83827191 43.7578125 121.8046875 C46.76113891 117.44136423 46.44070294 113.15785664 46 108 C43.70609365 102.26523413 38.62249813 98.66279721 33.3125 95.8125 C25.80736429 92.60528803 17.04280242 92.62182399 9 92 C9 91.34 9 90.68 9 90 C7.515 90.99 7.515 90.99 6 92 C5.01 92 4.02 92 3 92 C-2.08055588 81.83888824 -0.2747963 65.66864691 -0.1953125 54.4921875 C-0.19156674 52.90365785 -0.1887272 51.31512584 -0.18673706 49.72659302 C-0.1792233 45.61351762 -0.15968574 41.50059115 -0.1373291 37.38757324 C-0.116601 33.16335055 -0.10767866 28.939103 -0.09765625 24.71484375 C-0.07642371 16.47649534 -0.04244297 8.23826637 0 0 Z " fill="#F4D3B0" transform="translate(242,224)"/>
<path d="M0 0 C0.17273438 0.55945313 0.34546875 1.11890625 0.5234375 1.6953125 C5.58427253 16.13494274 15.0775931 26.89207509 28.375 34.328125 C30.55473341 35.37128313 32.71545771 36.21468859 35 37 C36.2065625 37.44472656 36.2065625 37.44472656 37.4375 37.8984375 C51.82070842 42.5644188 67.45467031 40.5119968 81.16796875 34.64453125 C95.48697329 27.27765029 104.91860766 15.24417702 110 0 C129.37524125 3.19547422 148.06199019 9.06417626 166 17 C166.8554541 17.37495605 167.7109082 17.74991211 168.59228516 18.13623047 C184.86679141 25.34698698 199.8823189 34.14868791 214 45 C181.97022911 77.88618187 129.45061353 94.71114848 85 100 C84.30769287 100.0942627 83.61538574 100.18852539 82.90209961 100.28564453 C73.75546096 101.39921766 64.51220512 101.2439214 55.3125 101.25 C54.39615784 101.25067474 53.47981567 101.25134949 52.53570557 101.25204468 C38.47092722 101.23560129 24.84680814 100.64177299 11 98 C10.1145752 97.8443457 9.22915039 97.68869141 8.31689453 97.52832031 C-30.74022859 90.58082566 -71.61705746 73.97162602 -102 48 C-102.66 47.01 -103.32 46.02 -104 45 C-78.01033226 23.99038835 -34.46576104 0 0 0 Z " fill="#79CCF0" transform="translate(303,472)"/>
<path d="M0 0 C0.33 0 0.66 0 1 0 C1.00808685 0.59451965 1.01617371 1.18903931 1.02450562 1.80157471 C1.11186096 8.09820772 1.21138664 14.39457183 1.31738281 20.69091797 C1.35521384 23.02778539 1.39013812 25.36470203 1.421875 27.70166016 C1.62162037 42.23937809 2.25315617 56.56134023 4 71 C5.98 70.34 7.96 69.68 10 69 C10 69.66 10 70.32 10 71 C10.845625 70.97679687 11.69125 70.95359375 12.5625 70.9296875 C24.52488176 70.73937688 35.55368415 72.44024227 44.5625 81.125 C48.24185664 85.46475399 48.3449414 89.02253966 48.28125 94.5 C47.62519999 100.33155567 43.16017164 104.23826733 39 108 C31.27159803 111.82173724 23.61136833 113.89288381 15 113 C18.74931783 123.16726776 23.65354523 132.36771927 29.8984375 141.22265625 C31 143 31 143 31 145 C31.66 145 32.32 145 33 145 C34.5078125 146.6796875 34.5078125 146.6796875 36.125 148.875 C36.66382813 149.59429687 37.20265625 150.31359375 37.7578125 151.0546875 C39 153 39 153 39 155 C39.66 155 40.32 155 41 155 C41 155.66 41 156.32 41 157 C41.66 157 42.32 157 43 157 C43 157.66 43 158.32 43 159 C43.83144531 159.36351562 43.83144531 159.36351562 44.6796875 159.734375 C47.49051305 161.26755257 49.69415711 163.16642038 52.125 165.25 C76.24473667 185.19025849 109.32425584 192.42827459 140 194 C140 194.33 140 194.66 140 195 C137.60445843 195.17220838 135.20872302 195.33776715 132.8125 195.5 C131.83120117 195.57154297 131.83120117 195.57154297 130.83007812 195.64453125 C91.13581611 198.27827375 42.17134651 192.66175045 10.8359375 165.29296875 C-2.20059162 153.57696704 -2.20059162 153.57696704 -7 147 C-7 146.34 -7 145.68 -7 145 C-7.66 145 -8.32 145 -9 145 C-10.44082485 143.02722504 -11.73358911 141.08182559 -13 139 C-13.35288086 138.42137207 -13.70576172 137.84274414 -14.06933594 137.24658203 C-20.96425415 125.71241342 -26.44022067 113.99733384 -30 101 C-31.01320312 101.04640625 -32.02640625 101.0928125 -33.0703125 101.140625 C-34.42184532 101.17816758 -35.77341028 101.21456506 -37.125 101.25 C-37.79015625 101.28351563 -38.4553125 101.31703125 -39.140625 101.3515625 C-45.2940217 101.47221734 -48.44341511 99.21707865 -52.94140625 95.31640625 C-58.23418805 89.58999896 -60.64681213 83.33744379 -63 76 C-63.37753418 74.84467773 -63.37753418 74.84467773 -63.76269531 73.66601562 C-74.97817729 39.02956947 -74.97817729 39.02956947 -69.375 26.5625 C-66.87368644 22.2745339 -63.45752558 19.22876279 -59 17 C-57.62324362 16.89268164 -56.24166249 16.84385657 -54.86083984 16.82641602 C-54.00589935 16.81292618 -53.15095886 16.79943634 -52.27011108 16.78553772 C-51.3430838 16.77509933 -50.41605652 16.76466095 -49.4609375 16.75390625 C-47.4986938 16.72094728 -45.53645433 16.687736 -43.57421875 16.65429688 C-40.48033774 16.60703401 -37.38647127 16.56264628 -34.29248047 16.52319336 C-31.30677728 16.48323404 -28.32143712 16.43172631 -25.3359375 16.37890625 C-24.4210556 16.3704921 -23.50617371 16.36207794 -22.56356812 16.35340881 C-17.06388115 16.24867068 -12.2858053 15.53864721 -7 14 C-7 13.34 -7 12.68 -7 12 C-6.401875 11.46375 -5.80375 10.9275 -5.1875 10.375 C-2.23443472 7.16881484 -1.37403528 4.12210583 0 0 Z " fill="#F0BB93" transform="translate(241,245)"/>
<path d="M0 0 C1.69385274 1.02895101 3.38770549 2.05790202 5.08155823 3.08685303 C8.32312911 4.62978786 11.40776183 4.37494648 14.9375 4.25 C15.62134766 4.23195313 16.30519531 4.21390625 17.00976562 4.1953125 C18.67379978 4.14876609 20.33709886 4.07704561 22 4 C22.42925781 5.15242188 22.85851562 6.30484375 23.30078125 7.4921875 C30.68052639 27.3182133 30.68052639 27.3182133 41.734375 45.26171875 C43 47 43 47 43 49 C43.66 49 44.32 49 45 49 C46.10077735 50.47861174 47.13040725 52.0104727 48.125 53.5625 C51.58145118 58.61260182 55.207874 62.24100233 60 66 C60.99386719 66.80566406 61.98773438 67.61132812 63.01171875 68.44140625 C79.4596054 81.61454462 98.6105984 89.1561282 119 94 C119.04945386 98.35992871 119.08574488 102.71970862 119.10986328 107.07983398 C119.11991821 108.56293583 119.13356404 110.04601788 119.15087891 111.52905273 C119.17515006 113.66134531 119.18648799 115.79337569 119.1953125 117.92578125 C119.20578613 119.20880127 119.21625977 120.49182129 119.22705078 121.8137207 C119 125 119 125 117 128 C115.03434277 128.38031673 115.03434277 128.38031673 112.57914734 128.38768005 C111.64965271 128.39758469 110.72015808 128.40748932 109.76249695 128.41769409 C108.73961075 128.41319244 107.71672455 128.4086908 106.6628418 128.40405273 C105.58793488 128.41091599 104.51302795 128.41777924 103.4055481 128.42485046 C99.83663889 128.44321685 96.26816528 128.43926613 92.69921875 128.43359375 C90.22540645 128.43815156 87.75159542 128.44345593 85.27778625 128.44947815 C79.41887098 128.45957732 73.56011168 128.45342588 67.70120317 128.44222456 C61.70892846 128.43301799 55.71706928 128.45766368 49.72484112 128.48396206 C44.6127637 128.50230195 39.50081399 128.50203573 34.38871193 128.49632454 C31.93388945 128.49617098 29.4790585 128.50224353 27.0242672 128.51461601 C23.59095291 128.52947786 20.15862502 128.51888228 16.7253418 128.50170898 C15.20012154 128.51621094 15.20012154 128.51621094 13.64408875 128.53100586 C9.28009428 128.48525083 6.70408119 128.41772661 2.89216614 126.15614319 C0.0216753 122.88518873 -0.12459351 120.23274123 -0.12025452 116.04560852 C-0.12162918 115.02337189 -0.12300385 114.00113525 -0.12442017 112.94792175 C-0.12082489 111.82726822 -0.11722961 110.70661469 -0.11352539 109.55200195 C-0.11367142 108.37138184 -0.11381744 107.19076172 -0.1139679 105.97436523 C-0.11339024 102.73702558 -0.10837183 99.49972905 -0.10139394 96.262398 C-0.09514648 92.87913211 -0.0945555 89.49586538 -0.09336853 86.1125946 C-0.09025933 79.70593784 -0.08205147 73.29929813 -0.07201904 66.89264888 C-0.06084516 59.59888731 -0.05534423 52.30512494 -0.05032361 45.01135695 C-0.03986853 30.0075618 -0.02227702 15.0037826 0 0 Z " fill="#EBA440" transform="translate(189,341)"/>
<path d="M0 0 C2.18916281 0.01849997 4.37790497 0.02050706 6.56713867 0.02026367 C12.88135014 0.04213466 18.97812281 0.19821298 25.22924805 1.20581055 C22.52096848 3.01133026 21.06118227 3.20204226 17.74487305 3.12768555 C12.47092602 3.0654702 7.5865322 4.23706683 2.47924805 5.45581055 C1.5027832 5.6854248 0.52631836 5.91503906 -0.47973633 6.15161133 C-12.81032034 9.10692618 -23.54819878 13.35548855 -34.77075195 19.20581055 C-37.01795312 20.35712325 -39.26777275 21.50334619 -41.52075195 22.64331055 C-42.4849707 23.13702148 -43.44918945 23.63073242 -44.44262695 24.1394043 C-46.77075195 25.20581055 -46.77075195 25.20581055 -48.77075195 25.20581055 C-48.77075195 25.86581055 -48.77075195 26.52581055 -48.77075195 27.20581055 C-49.44750977 27.41979492 -50.12426758 27.6337793 -50.8215332 27.85424805 C-54.70039213 29.63184432 -57.67956378 32.13111746 -60.95825195 34.83081055 C-67.5090332 40.20581055 -67.5090332 40.20581055 -69.77075195 40.20581055 C-69.77075195 40.86581055 -69.77075195 41.52581055 -69.77075195 42.20581055 C-71.45325113 43.38355997 -73.1376888 44.55866658 -74.83325195 45.7175293 C-77.41647443 47.70181915 -79.33291629 50.01593062 -81.3840332 52.5300293 C-83.35567412 54.91266016 -85.58429063 57.01934923 -87.77075195 59.20581055 C-94.50230835 66.19186813 -101.64779911 73.83695201 -104.77075195 83.20581055 C-105.43075195 83.20581055 -106.09075195 83.20581055 -106.77075195 83.20581055 C-107.04274414 83.75108398 -107.31473633 84.29635742 -107.5949707 84.8581543 C-108.4268092 86.51906771 -109.26319812 88.17770577 -110.1027832 89.8347168 C-119.63563494 108.72435177 -127.06164075 127.80003804 -130.45825195 148.76831055 C-130.57765137 149.49880615 -130.69705078 150.22930176 -130.82006836 150.98193359 C-131.89435089 158.07515218 -132.25469122 164.98096024 -132.77075195 172.20581055 C-145.97075195 172.20581055 -159.17075195 172.20581055 -172.77075195 172.20581055 C-172.77075195 153.34136667 -172.77075195 153.34136667 -171.33325195 145.89331055 C-171.16132324 144.98726074 -170.98939453 144.08121094 -170.81225586 143.14770508 C-162.93313751 104.68747445 -142.63009627 67.12658688 -111.77075195 42.20581055 C-111.27736328 41.80007812 -110.78397461 41.3943457 -110.27563477 40.97631836 C-102.1681437 34.32463195 -93.89636312 28.41890998 -84.77075195 23.20581055 C-83.64540039 22.54967773 -82.52004883 21.89354492 -81.3605957 21.2175293 C-56.62338401 7.16384587 -28.39655634 -0.24810335 0 0 Z " fill="#EAA340" transform="translate(354.770751953125,89.794189453125)"/>
<path d="M0 0 C0.21914063 0.61746094 0.43828125 1.23492187 0.6640625 1.87109375 C3.03525426 8.20391078 6.03640006 13.53023208 10 19 C9.34 19.66 8.68 20.32 8 21 C7.01 21 6.02 21 5 21 C5 21.66 5 22.32 5 23 C0.05 24.485 0.05 24.485 -5 26 C-5 26.66 -5 27.32 -5 28 C-6.01964844 28.4125 -7.03929687 28.825 -8.08984375 29.25 C-22.29311867 35.35494769 -35.29303752 46.40897178 -46.546875 56.85546875 C-48 58 -48 58 -50 58 C-50 58.66 -50 59.32 -50 60 C-51.609375 61.55078125 -51.609375 61.55078125 -53.75 63.3125 C-56.90170177 65.98362313 -59.55769329 68.64182828 -62 72 C-66.94640694 71.43442246 -70.56484192 69.20128441 -74.75 66.6875 C-75.48428223 66.25034668 -76.21856445 65.81319336 -76.97509766 65.36279297 C-82.57558928 61.97537005 -88.0108617 58.37421003 -93.375 54.625 C-94.09397461 54.12572998 -94.81294922 53.62645996 -95.55371094 53.11206055 C-98.92996996 50.70641515 -101.77573362 48.582597 -104 45 C-78.01033226 23.99038835 -34.46576104 0 0 0 Z " fill="#5DB5C7" transform="translate(303,472)"/>
<path d="M0 0 C44.88 0 89.76 0 136 0 C136 0.33 136 0.66 136 1 C115.87 1 95.74 1 75 1 C75 4.96 75 8.92 75 13 C74.77916307 14.90154273 74.55817536 16.80363792 74.28076172 18.69775391 C73.65843715 23.80081541 73.47894805 28.95205309 73.18487549 34.08255005 C72.5842807 44.41322977 71.96439073 54.74849823 71.125 65.0625 C71.07093994 65.88065186 71.01687988 66.69880371 70.96118164 67.54174805 C70.38778384 74.04323932 68.24392874 78.33533462 64 83.375 C60.05885481 86.57718047 55.95732186 86.33608962 51 86 C45.13371883 84.17942998 42.45039539 81.87114644 39 77 C37.85245705 73.55737115 37.61525999 70.5002446 37.31640625 66.87890625 C37.25656555 66.15865265 37.19672485 65.43839905 37.1350708 64.69631958 C36.93959869 62.3187295 36.75061074 59.94068313 36.5625 57.5625 C36.49719086 56.75197174 36.43188171 55.94144348 36.36459351 55.10635376 C34.91738637 37.08534237 33.93512761 19.05515617 33 1 C22.11 1 11.22 1 0 1 C0 0.67 0 0.34 0 0 Z " fill="#F1BF99" transform="translate(304,251)"/>
<path d="M0 0 C1.37841181 4.13523542 -0.01814207 7.03460899 -1.375 11 C-1.77730835 12.18638062 -1.77730835 12.18638062 -2.18774414 13.39672852 C-9.77349018 35.0183377 -21.46716434 53.99099662 -37.01171875 70.82421875 C-38.60706821 72.57001374 -40.09935732 74.33288102 -41.5625 76.1875 C-56.89513539 93.87900237 -79.53403482 106.41816663 -101 115 C-101.70495605 115.28246582 -102.40991211 115.56493164 -103.13623047 115.85595703 C-106.21925788 117.05893534 -108.6611123 118 -112 118 C-112 109.09 -112 100.18 -112 91 C-109.03 90.154375 -106.06 89.30875 -103 88.4375 C-83.59309052 82.70998665 -63.59135999 73.95755167 -49.25390625 59.203125 C-48 58 -48 58 -46 58 C-45.77183594 57.46246094 -45.54367187 56.92492187 -45.30859375 56.37109375 C-43.94510515 53.90053381 -42.29400471 51.883935 -40.47143555 49.73925781 C-28.51019424 35.50432361 -21.13273039 18.7371569 -16 1 C-8.08 0.505 -8.08 0.505 0 0 Z " fill="#EAA340" transform="translate(520,344)"/>
<path d="M0 0 C1.84765625 2.23046875 1.84765625 2.23046875 2.09765625 5.23046875 C-0.48504431 16.47849175 -10.46375111 29.088955 -20.15234375 35.23046875 C-35.54671369 43.61375377 -52.26626082 47.0511785 -69.40234375 42.66796875 C-79.14816355 39.51556235 -89.40506222 34.16083526 -96.15234375 26.23046875 C-96.859375 24.0234375 -96.859375 24.0234375 -97.15234375 22.23046875 C-95.26310977 21.21805628 -93.36564431 20.2209945 -91.46484375 19.23046875 C-90.40910156 18.67359375 -89.35335938 18.11671875 -88.265625 17.54296875 C-85.23008113 16.26324135 -83.39207549 15.94195832 -80.15234375 16.23046875 C-80.15234375 15.57046875 -80.15234375 14.91046875 -80.15234375 14.23046875 C-68.18445978 10.82183809 -56.21270641 7.42412997 -44.15234375 4.35546875 C-42.98203613 4.05153198 -42.98203613 4.05153198 -41.78808594 3.74145508 C-37.19762972 2.59284956 -32.71667711 1.87250322 -28 1.47216797 C-26.06059307 1.3210186 -26.06059307 1.3210186 -24.15234375 0.23046875 C-20.73451672 -0.3633591 -17.28743728 -0.70563624 -13.83984375 -1.08203125 C-12.88916016 -1.20642578 -11.93847656 -1.33082031 -10.95898438 -1.45898438 C-3.9366614 -2.20979878 -3.9366614 -2.20979878 0 0 Z " fill="#F0BF9A" transform="translate(411.15234375,468.76953125)"/>
<path d="M0 0 C4.03380312 3.76488291 5.59816902 6.37436623 6 12 C6.66 12 7.32 12 8 12 C11 15.46153846 11 15.46153846 11 18 C11.66 18 12.32 18 13 18 C15.19337678 20.08089592 17.31409148 22.16166736 19.23046875 24.50390625 C21.83786592 26.70839437 24.6608401 27.51737196 27.875 28.625 C29.08929688 29.05039062 30.30359375 29.47578125 31.5546875 29.9140625 C43.53330795 33.68963675 54.44090996 32.55056131 66 28 C67.99671036 27.32354439 69.99591224 26.65427571 72 26 C72 25.34 72 24.68 72 24 C73.94127845 22.41988963 75.98976439 21.0464337 78.0546875 19.6328125 C80.12415294 17.89579131 80.98191532 16.47555328 82 14 C82.66 14 83.32 14 84 14 C84.4021875 12.9790625 84.4021875 12.9790625 84.8125 11.9375 C88.71428571 2.28571429 88.71428571 2.28571429 91 0 C94.693507 -0.20146402 97.47940432 -0.17353189 101 1 C102.86183751 3.42038876 103.00001599 5.00078328 103.0625 8.0625 C102.0718291 13.72522379 98.14880774 18.33866452 95 23 C94.50113281 23.86753906 94.00226563 24.73507812 93.48828125 25.62890625 C86.58728661 36.62340427 72.37659833 43.92940273 60.140625 47.15625 C47.98664886 49.9003274 35.94482316 47.66852432 24 45 C24 44.34 24 43.68 24 43 C21.36 42.34 18.72 41.68 16 41 C16 40.34 16 39.68 16 39 C15.278125 38.731875 14.55625 38.46375 13.8125 38.1875 C11.00233617 37.00098638 8.51583443 35.72514361 6 34 C6 33.34 6 32.68 6 32 C5.34 32 4.68 32 4 32 C4 31.34 4 30.68 4 30 C3.34 30 2.68 30 2 30 C2 29.34 2 28.68 2 28 C1.34 28 0.68 28 0 28 C-1.42951409 26.02825642 -2.72191568 24.06761764 -4 22 C-4.42925781 21.32710938 -4.85851562 20.65421875 -5.30078125 19.9609375 C-11.82816717 9.67886057 -11.82816717 9.67886057 -11 4 C-7.67818343 0.28738148 -4.93253363 -1.02761117 0 0 Z " fill="#F1BF9A" transform="translate(312,346)"/>
<path d="M0 0 C0.79647949 0.00563965 1.59295898 0.0112793 2.41357422 0.01708984 C12.11397522 0.21781521 18.8913803 2.70715244 26.125 9.3125 C29.77357045 13.30312393 29.56994133 17.54396804 29.41015625 22.7265625 C28.78493015 28.39642114 25.2516177 31.65481613 21.125 35.3125 C12.868838 40.97849353 3.01216075 42.42945958 -6.875 41.3125 C-15.1751907 39.24025266 -22.01944664 35.97346584 -27.3125 29.1875 C-29.67751786 24.42634561 -29.97955899 19.47205073 -28.875 14.3125 C-25.26891003 8.11291839 -19.48799245 3.56037894 -12.7421875 1.23046875 C-8.38819301 0.1969448 -4.45400935 -0.03286745 0 0 Z " fill="#E66D56" transform="translate(455.875,316.6875)"/>
<path d="M0 0 C0.87672363 0.00241699 1.75344727 0.00483398 2.65673828 0.00732422 C11.99484532 0.27078178 19.09586444 3.35699628 25.9375 9.75 C29.49079969 14.0715807 29.59396309 17.66917462 29.53125 23.0625 C29.11573905 26.75593066 27.64725972 28.77649546 25.25 31.5625 C24.569375 32.42875 23.88875 33.295 23.1875 34.1875 C14.05389048 41.57212047 2.74016272 41.63256226 -8.51269531 40.84179688 C-15.68564113 39.94635274 -21.21914003 36.05445148 -25.75 30.5625 C-26.348125 29.86125 -26.94625 29.16 -27.5625 28.4375 C-29.75515637 23.12896353 -29.66888383 17.14686077 -27.75 11.75 C-20.00066342 3.27416312 -11.3329179 -0.03263463 0 0 Z " fill="#E66C55" transform="translate(259.75,316.4375)"/>
<path d="M0 0 C5.5079263 1.94668752 8.51355147 4.98048957 11.12109375 10.27734375 C15.98477113 25.34393544 8.68813234 43.29184684 4.125 57.5625 C3.80982422 58.57368896 3.49464844 59.58487793 3.16992188 60.62670898 C0.38533614 69.02580639 -3.52172626 75.94711234 -11 81 C-14.61867559 82.2062252 -17.92506251 82.10816918 -21.6875 82.0625 C-22.38939453 82.05798828 -23.09128906 82.05347656 -23.81445312 82.04882812 C-25.54300538 82.03706927 -27.27151365 82.01913454 -29 82 C-28.86424561 81.36312256 -28.72849121 80.72624512 -28.58862305 80.07006836 C-25.35656107 64.77419486 -22.77603323 49.53310258 -21 34 C-19 35 -17 36 -15 37 C-13.12620395 37.07033769 -11.24998898 37.0843022 -9.375 37.0625 C-8.37210938 37.05347656 -7.36921875 37.04445313 -6.3359375 37.03515625 C-5.56507813 37.02355469 -4.79421875 37.01195312 -4 37 C-4 36.34 -4 35.68 -4 35 C-3.34 35 -2.68 35 -2 35 C-1.05747447 30.95820902 -0.80704506 27.09365556 -0.68359375 22.94921875 C-0.66281265 22.29041214 -0.64203156 21.63160553 -0.62062073 20.95283508 C-0.55564511 18.86448815 -0.49648425 16.77602388 -0.4375 14.6875 C-0.39426521 13.2649622 -0.3506494 11.84243594 -0.30664062 10.41992188 C-0.20001784 6.94673703 -0.09860652 3.47342274 0 0 Z " fill="#EFBE99" transform="translate(534,263)"/>
<path d="M0 0 C5.24749158 3.17552065 8.44819245 8.1095283 10.875 13.625 C11.95318203 18.58463736 12.18147076 21.29606832 9.625 25.8125 C7.5 28.5 7.5 28.5 5.5 29.5 C1.23296158 29.91029216 -0.84032715 29.94913896 -4.4375 27.5 C-8.26895392 24.99782601 -11.03523181 24.56759861 -15.5 25.5 C-17.52456848 26.79572383 -19.52678947 28.1273318 -21.5 29.5 C-25.49014586 30.15145239 -26.92974748 29.88016835 -30.3125 27.625 C-33.18584497 24.8337506 -33.68357307 23.26995045 -33.8125 19.375 C-33.71746153 13.45410307 -31.91847688 9.03070319 -27.81640625 4.73828125 C-20.03520109 -2.17276764 -9.95167139 -4.35867778 0 0 Z " fill="#35183F" transform="translate(297.5,280.5)"/>
<path d="M0 0 C5.48384443 3.32780303 9.20768243 8.38970021 11.4375 14.375 C12.12195576 19.08272009 12.11976362 22.2833782 9.5625 26.375 C6.82012878 28.95605526 5.92487793 29.32902095 2.125 29.6875 C-1.5625 29.375 -1.5625 29.375 -4 27.375 C-6.91643033 25.09876169 -8.84188551 24.80301739 -12.515625 24.96875 C-14.76824563 25.41583501 -16.24187167 26.16974351 -18.1875 27.375 C-21.83630643 29.53725566 -23.42278642 30.18494396 -27.5625 29.375 C-30.4375 27.625 -30.4375 27.625 -32.5625 24.375 C-33.75393729 18.21177555 -33.36698829 12.84237536 -30.0625 7.4375 C-22.59954702 -2.06394477 -11.45751437 -5.15262032 0 0 Z " fill="#34183E" transform="translate(440.5625,280.625)"/>
<path d="M0 0 C-1.1571326 3.47139779 -1.9211849 4.15801924 -5 6 C-7.578125 6.51171875 -7.578125 6.51171875 -10.25 6.6875 C-11.14203125 6.75324219 -12.0340625 6.81898438 -12.953125 6.88671875 C-13.62859375 6.92410156 -14.3040625 6.96148437 -15 7 C-14.67 8.65 -14.34 10.3 -14 12 C-14.99 12.495 -14.99 12.495 -16 13 C-14.68 14.32 -13.36 15.64 -12 17 C-14.3125 16.875 -14.3125 16.875 -17 16 C-19.02201431 12.79266696 -20 10.80845564 -20 7 C-17.04380781 5.8278551 -14.08471211 4.66322524 -11.125 3.5 C-10.28324219 3.16613281 -9.44148438 2.83226562 -8.57421875 2.48828125 C-7.76855469 2.17246094 -6.96289062 1.85664063 -6.1328125 1.53125 C-5.38918457 1.23798828 -4.64555664 0.94472656 -3.87939453 0.64257812 C-2 0 -2 0 0 0 Z " fill="#49254E" transform="translate(428,455)"/>
<path d="M0 0 C2 2 2 2 2.125 4.5 C2.08375 5.325 2.0425 6.15 2 7 C1.89459074 9.21081851 1.89459074 9.21081851 3 12 C2.5625 14.1875 2.5625 14.1875 2 16 C1.34 16 0.68 16 0 16 C0 17.65 0 19.3 0 21 C-1.32 21 -2.64 21 -4 21 C-3.54034292 13.69303751 -2.11670277 7.00242552 0 0 Z " fill="#DF9D42" transform="translate(188,217)"/>
<path d="M0 0 C1 3 1 3 0.22265625 4.82421875 C-0.8515625 6.54947917 -1.92578125 8.27473958 -3 10 C-3.99 10 -4.98 10 -6 10 C-6.33 12.97 -6.66 15.94 -7 19 C-9.62113708 19 -11.50935112 18.68707555 -14 18 C-10.5504363 10.94407426 -5.35722929 5.65371717 0 0 Z " fill="#452751" transform="translate(172,140)"/>
<path d="M0 0 C0.99 0.99 1.98 1.98 3 3 C1.75 5 1.75 5 0 7 C-1.32 7 -2.64 7 -4 7 C-3.44986966 9.06280773 -3.44986966 9.06280773 -2 11 C0.8786935 11.70535611 0.8786935 11.70535611 4.125 11.75 C5.76855469 11.83507812 5.76855469 11.83507812 7.4453125 11.921875 C8.28835938 11.94765625 9.13140625 11.9734375 10 12 C10 12.33 10 12.66 10 13 C4.06 13.33 -1.88 13.66 -8 14 C-9 11 -9 11 -8.0625 8.8125 C-7.711875 8.214375 -7.36125 7.61625 -7 7 C-6.34 7 -5.68 7 -5 7 C-5 6.34 -5 5.68 -5 5 C-3.37446717 3.29319053 -1.70884005 1.62339805 0 0 Z " fill="#EFC8A6" transform="translate(451,304)"/>
<path d="M0 0 C2.31 0.33 4.62 0.66 7 1 C7 1.66 7 2.32 7 3 C19.21 3 31.42 3 44 3 C44 3.33 44 3.66 44 4 C38.32576816 4.02486852 32.65156862 4.04293935 26.97729492 4.05493164 C25.05020596 4.05993539 23.12312075 4.06674045 21.19604492 4.07543945 C18.41323924 4.08767948 15.63048411 4.09326804 12.84765625 4.09765625 C11.57209618 4.10539818 11.57209618 4.10539818 10.27076721 4.11329651 C4.77104481 4.11380299 -0.5431175 3.69381392 -6 3 C-6 2.67 -6 2.34 -6 2 C-4.02 1.67 -2.04 1.34 0 1 C0 0.67 0 0.34 0 0 Z " fill="#95D0E5" transform="translate(334,569)"/>
<path d="M0 0 C11.11607143 2.00892857 11.11607143 2.00892857 16 3 C16 3.33 16 3.66 16 4 C13.98177083 3.96744792 11.96354167 3.93489583 9.9453125 3.90234375 C7.91814596 3.87350758 7.91814596 3.87350758 6 5 C4.00039988 5.039992 1.99952758 5.04346799 0 5 C-0.66 7.31 -1.32 9.62 -2 12 C-2.99 12 -3.98 12 -5 12 C-3.35 8.04 -1.7 4.08 0 0 Z " fill="#81C9E7" transform="translate(413,472)"/>
<path d="M0 0 C4.62 0 9.24 0 14 0 C13.01 1.485 13.01 1.485 12 3 C9.8359375 3.29296875 9.8359375 3.29296875 7.375 3.1875 C6.55773437 3.16042969 5.74046875 3.13335937 4.8984375 3.10546875 C4.27195312 3.07066406 3.64546875 3.03585937 3 3 C3 3.66 3 4.32 3 5 C4.32 4.67 5.64 4.34 7 4 C7 4.66 7 5.32 7 6 C4.36 6 1.72 6 -1 6 C-0.67 4.02 -0.34 2.04 0 0 Z " fill="#EDA84F" transform="translate(504,345)"/>
<path d="M0 0 C3.10487844 -0.25873987 4.62505604 -0.23307327 7.3125 1.4375 C8.1478125 2.2109375 8.1478125 2.2109375 9 3 C9 3.33 9 3.66 9 4 C11.475 4.99 11.475 4.99 14 6 C9.90913548 7.67641098 6.28488982 6.2409319 2.25 5.0625 C1.55261719 4.86720703 0.85523438 4.67191406 0.13671875 4.47070312 C-1.57798973 3.9891754 -3.28934877 3.49574843 -5 3 C-4.360625 2.87625 -3.72125 2.7525 -3.0625 2.625 C-2.0415625 2.315625 -2.0415625 2.315625 -1 2 C-0.67 1.34 -0.34 0.68 0 0 Z " fill="#8DD0EA" transform="translate(293,561)"/>
<path d="M0 0 C0.66 2.31 1.32 4.62 2 7 C-2.19360449 6.32902328 -5.40334352 4.1441606 -9 2 C-5.73400654 -1.26599346 -4.35266641 -1.03089468 0 0 Z " fill="#4A264E" transform="translate(447,108)"/>
<path d="M0 0 C0 0.99 0 1.98 0 3 C-13.7755102 9.30612245 -13.7755102 9.30612245 -19 8 C-12.73 5.36 -6.46 2.72 0 0 Z " fill="#63AEC0" transform="translate(261,483)"/>
<path d="M0 0 C0.33 0 0.66 0 1 0 C1.16435547 1.10408203 1.16435547 1.10408203 1.33203125 2.23046875 C2.46860121 9.55865231 2.46860121 9.55865231 6 16 C5.01 16.33 4.02 16.66 3 17 C2.01 15.68 1.02 14.36 0 13 C-0.99 13.495 -0.99 13.495 -2 14 C-1.34 9.38 -0.68 4.76 0 0 Z " fill="#F2C8A5" transform="translate(426,334)"/>
<path d="M0 0 C0.53625 0.2475 1.0725 0.495 1.625 0.75 C0.625 3.75 0.625 3.75 -1.75 5.5 C-4.375 6.75 -4.375 6.75 -7.375 5.75 C-7.705 5.09 -8.035 4.43 -8.375 3.75 C-2.95961538 -0.31153846 -2.95961538 -0.31153846 0 0 Z " fill="#4C2E58" transform="translate(229.375,96.25)"/>
<path d="M0 0 C-1.1859733 3.5579199 -1.71068486 4.27310955 -5 6 C-8.01709022 6.24969023 -10.98005968 6.17422733 -14 6 C-11.74402173 3.74402173 -9.95396133 3.03425808 -7 1.875 C-6.113125 1.52179688 -5.22625 1.16859375 -4.3125 0.8046875 C-2 0 -2 0 0 0 Z " fill="#4F2947" transform="translate(428,455)"/>
<path d="M0 0 C0.57234375 0.37898438 1.1446875 0.75796875 1.734375 1.1484375 C0.785625 1.6021875 -0.163125 2.0559375 -1.140625 2.5234375 C-4.26876179 3.95082004 -4.26876179 3.95082004 -6.265625 6.1484375 C-7.585625 5.4884375 -8.905625 4.8284375 -10.265625 4.1484375 C-9.0293082 3.25420836 -7.77590938 2.38355859 -6.515625 1.5234375 C-5.81953125 1.03617187 -5.1234375 0.54890625 -4.40625 0.046875 C-2.265625 -0.8515625 -2.265625 -0.8515625 0 0 Z M-7.265625 6.1484375 C-6.935625 6.8084375 -6.605625 7.4684375 -6.265625 8.1484375 C-7.255625 7.8184375 -8.245625 7.4884375 -9.265625 7.1484375 C-8.605625 6.8184375 -7.945625 6.4884375 -7.265625 6.1484375 Z " fill="#492549" transform="translate(449.265625,444.8515625)"/>
<path d="M0 0 C-1.27351308 3.82053924 -2.62637525 4.23021375 -6.0625 6.1875 C-6.98160156 6.71730469 -7.90070313 7.24710937 -8.84765625 7.79296875 C-9.55792969 8.19128906 -10.26820313 8.58960938 -11 9 C-10.49396008 6.83125748 -10.00016187 5.00032373 -9 3 C-2.65384615 0 -2.65384615 0 0 0 Z " fill="#E09C3F" transform="translate(459,435)"/>
<path d="M0 0 C0.66 0 1.32 0 2 0 C2.33 1.32 2.66 2.64 3 4 C2.34 4 1.68 4 1 4 C0.360625 4.639375 -0.27875 5.27875 -0.9375 5.9375 C-3 8 -3 8 -6 9 C-6.66 8.34 -7.32 7.68 -8 7 C-7.21625 6.7525 -6.4325 6.505 -5.625 6.25 C-2.64259316 4.82980627 -2.1589951 3.99407067 -1 1 C-0.67 0.67 -0.34 0.34 0 0 Z " fill="#F2CAA7" transform="translate(483,345)"/>
<path d="M0 0 C0 3.6959107 -0.83487616 6.50462849 -2 10 C-4.5625 11.6875 -4.5625 11.6875 -7 13 C-5.74875245 7.31251115 -3.95897432 4.27152492 0 0 Z " fill="#432446" transform="translate(271,284)"/>
<path d="M0 0 C1 3 1 3 -0.5625 6.625 C-2.35248284 9.60830474 -2.70890524 9.91603036 -6.25 10.9375 C-7.1575 10.958125 -8.065 10.97875 -9 11 C-8.06558465 9.72689688 -7.12732889 8.456612 -6.1875 7.1875 C-5.66542969 6.47980469 -5.14335937 5.77210938 -4.60546875 5.04296875 C-3.16871123 3.21468607 -1.68184237 1.60103312 0 0 Z " fill="#5F4569" transform="translate(172,140)"/>
<path d="M0 0 C0.33 0 0.66 0 1 0 C1 3.96 1 7.92 1 12 C0.01 12.33 -0.98 12.66 -2 13 C-2.33 12.01 -2.66 11.02 -3 10 C-3.66 9.34 -4.32 8.68 -5 8 C-3.35 7.34 -1.7 6.68 0 6 C0 4.02 0 2.04 0 0 Z " fill="#DCB25C" transform="translate(533,250)"/>
<path d="M0 0 C-1.65 2.64 -3.3 5.28 -5 8 C-7 5 -7 5 -6.625 2.3125 C-6.41875 1.549375 -6.2125 0.78625 -6 0 C-2.25 -1.125 -2.25 -1.125 0 0 Z " fill="#4D2F57" transform="translate(576,452)"/>
<path d="M0 0 C0.99 0.99 1.98 1.98 3 3 C3.66 2.34 4.32 1.68 5 1 C5 2.98 5 4.96 5 7 C4.34 7 3.68 7 3 7 C3 9.31 3 11.62 3 14 C2.67 14 2.34 14 2 14 C1.34 9.38 0.68 4.76 0 0 Z " fill="#58334E" transform="translate(530,231)"/>
<path d="M0 0 C3.9492568 0.55105909 7.34920174 1.38935371 11 3 C10.34 3.66 9.68 4.32 9 5 C5.5 4.875 5.5 4.875 2 4 C0.5625 1.9375 0.5625 1.9375 0 0 Z " fill="#7CC2E2" transform="translate(446,481)"/>
<path d="M0 0 C0.66 0 1.32 0 2 0 C2.6875 2.25 2.6875 2.25 3 5 C1.5625 7.3125 1.5625 7.3125 0 9 C-1.125 6.75 -1.125 6.75 -2 4 C-1.125 1.6875 -1.125 1.6875 0 0 Z " fill="#E6B695" transform="translate(532,325)"/>
<path d="M0 0 C1.485 0.99 1.485 0.99 3 2 C3.29296875 4.1640625 3.29296875 4.1640625 3.1875 6.625 C3.16042969 7.44226563 3.13335937 8.25953125 3.10546875 9.1015625 C3.07066406 9.72804688 3.03585938 10.35453125 3 11 C1.68 10.34 0.36 9.68 -1 9 C-0.67 6.03 -0.34 3.06 0 0 Z " fill="#54375E" transform="translate(106,268)"/>
<path d="M0 0 C1.65 0.33 3.3 0.66 5 1 C1.15211031 3.40493106 -2.55417639 3.64715686 -7 4 C-7.99 3.67 -8.98 3.34 -10 3 C-10 2.34 -10 1.68 -10 1 C-6.7 1.33 -3.4 1.66 0 2 C0 1.34 0 0.68 0 0 Z " fill="#8ED0E8" transform="translate(420,563)"/>
<path d="M0 0 C-0.33 1.65 -0.66 3.3 -1 5 C-1.66 4.67 -2.32 4.34 -3 4 C-5.01927511 4.60578253 -7.02253397 5.26919734 -9 6 C-4.5 0 -4.5 0 0 0 Z " fill="#4B2648" transform="translate(489,412)"/>
<path d="M0 0 C0.66 0 1.32 0 2 0 C1.71640113 1.4391134 1.42278601 2.87625518 1.125 4.3125 C0.88136719 5.51326172 0.88136719 5.51326172 0.6328125 6.73828125 C0 9 0 9 -2 12 C-2.28571429 3.42857143 -2.28571429 3.42857143 0 0 Z " fill="#482547" transform="translate(190,205)"/>
<path d="M0 0 C3.465 1.485 3.465 1.485 7 3 C6.01 4.485 6.01 4.485 5 6 C2.03 5.505 2.03 5.505 -1 5 C-0.67 3.35 -0.34 1.7 0 0 Z " fill="#53355D" transform="translate(475,89)"/>
<path d="M0 0 C0.33 0.99 0.66 1.98 1 3 C1.66 3 2.32 3 3 3 C3 3.66 3 4.32 3 5 C2.360625 5.12375 1.72125 5.2475 1.0625 5.375 C0.0415625 5.684375 0.0415625 5.684375 -1 6 C-1.33 6.66 -1.66 7.32 -2 8 C-2 7.34 -2 6.68 -2 6 C-2.99 5.67 -3.98 5.34 -5 5 C-3.35 3.35 -1.7 1.7 0 0 Z " fill="#4A254B" transform="translate(479,418)"/>
<path d="M0 0 C2.50298434 2.93828597 3.46930939 5.17902761 4 9 C3.01 8.67 2.02 8.34 1 8 C1 7.34 1 6.68 1 6 C0.34 6 -0.32 6 -1 6 C-1.042721 4.33388095 -1.04063832 2.66617115 -1 1 C-0.67 0.67 -0.34 0.34 0 0 Z " fill="#52365D" transform="translate(588,205)"/>
<path d="M0 0 C0.66 0.66 1.32 1.32 2 2 C-0.97 4.475 -0.97 4.475 -4 7 C-4.33 5.68 -4.66 4.36 -5 3 C-3.35 2.01 -1.7 1.02 0 0 Z " fill="#85C8E6" transform="translate(515,516)"/>
<path d="M0 0 C0.33 1.32 0.66 2.64 1 4 C1.66 4 2.32 4 3 4 C3 4.66 3 5.32 3 6 C2.01 6 1.02 6 0 6 C-0.33 6.99 -0.66 7.98 -1 9 C-1.66 9 -2.32 9 -3 9 C-2.01 6.03 -1.02 3.06 0 0 Z " fill="#552B46" transform="translate(515,362)"/>
<path d="M0 0 C-0.99 0.495 -0.99 0.495 -2 1 C-1.34 1.66 -0.68 2.32 0 3 C-3.3 2.67 -6.6 2.34 -10 2 C-3.75 -1.125 -3.75 -1.125 0 0 Z " fill="#F1CAA7" transform="translate(279,355)"/>
<path d="M0 0 C-0.33 0.99 -0.66 1.98 -1 3 C-3.31 3 -5.62 3 -8 3 C-8.33 2.01 -8.66 1.02 -9 0 C-5.52176885 -1.15941038 -3.54104422 -0.70820884 0 0 Z " fill="#DF9E3F" transform="translate(312,98)"/>
<path d="M0 0 C5.94 0.99 5.94 0.99 12 2 C12 2.33 12 2.66 12 3 C10.01432292 2.96744792 8.02864583 2.93489583 6.04296875 2.90234375 C3.79694539 2.91736783 3.79694539 2.91736783 1 4 C0.67 2.68 0.34 1.36 0 0 Z " fill="#7DBFDD" transform="translate(417,473)"/>
<path d="M0 0 C0.61875 0.639375 1.2375 1.27875 1.875 1.9375 C3.82597612 4.03883584 3.82597612 4.03883584 6 5 C4.25 5.6875 4.25 5.6875 2 6 C-0.25 4.5625 -0.25 4.5625 -2 3 C-1.34 3 -0.68 3 0 3 C0 2.01 0 1.02 0 0 Z " fill="#6CBACD" transform="translate(236,538)"/>
<path d="M0 0 C-1.24976756 3.65316671 -1.67098753 4.78065836 -5 7 C-5 3 -5 3 -3.625 1.25 C-2 0 -2 0 0 0 Z " fill="#4B2F56" transform="translate(559,474)"/>
<path d="M0 0 C0.93065133 2.60582371 1.14917407 3.64198224 0.0625 6.25 C-0.4634375 7.11625 -0.4634375 7.11625 -1 8 C-3 5 -3 5 -2.75 2.875 C-2 1 -2 1 0 0 Z " fill="#53355E" transform="translate(118,395)"/>
<path d="M0 0 C0.33 0 0.66 0 1 0 C1 2.97 1 5.94 1 9 C0.01 9 -0.98 9 -2 9 C-2.20140476 5.37471432 -1.85776765 3.13498292 0 0 Z " fill="#402344" transform="translate(451,295)"/>
<path d="M0 0 C0.99 0.33 1.98 0.66 3 1 C2.60196439 3.88575819 2.20990931 4.82189513 -0.0625 6.75 C-0.701875 7.1625 -1.34125 7.575 -2 8 C-1.34 5.36 -0.68 2.72 0 0 Z " fill="#5A3E63" transform="translate(116,231)"/>
<path d="M0 0 C0.66 0.33 1.32 0.66 2 1 C1.67 3.31 1.34 5.62 1 8 C0.01 7.67 -0.98 7.34 -2 7 C-1.34 4.69 -0.68 2.38 0 0 Z " fill="#E09D42" transform="translate(194,200)"/>
<path d="M0 0 C1.37562854 1.28965176 2.70766393 2.62689293 4 4 C4 4.66 4 5.32 4 6 C2.02 5.34 0.04 4.68 -2 4 C-1.34 2.68 -0.68 1.36 0 0 Z " fill="#E2B85F" transform="translate(507,175)"/>
<path d="M0 0 C2.97 0.495 2.97 0.495 6 1 C6 2.65 6 4.3 6 6 C3.97945196 4.35830472 1.97956942 2.69088222 0 1 C0 0.67 0 0.34 0 0 Z " fill="#4D3058" transform="translate(185,505)"/>
<path d="M0 0 C0.99 0 1.98 0 3 0 C3.66 2.31 4.32 4.62 5 7 C3.35 6.67 1.7 6.34 0 6 C0.66 5.67 1.32 5.34 2 5 C2 3.68 2 2.36 2 1 C1.34 0.67 0.68 0.34 0 0 Z " fill="#6CB5C3" transform="translate(300,472)"/>
<path d="M0 0 C-1.04874998 2.62187494 -1.64931313 3.79371361 -4.125 5.25 C-4.74375 5.4975 -5.3625 5.745 -6 6 C-6.66 5.34 -7.32 4.68 -8 4 C-2.25 0 -2.25 0 0 0 Z " fill="#4C2748" transform="translate(458,438)"/>
<path d="M0 0 C0.33 0.66 0.66 1.32 1 2 C1.66 2.33 2.32 2.66 3 3 C2 6 2 6 -0.0625 7.1875 C-0.701875 7.455625 -1.34125 7.72375 -2 8 C-1.34 5.36 -0.68 2.72 0 0 Z " fill="#563053" transform="translate(537,321)"/>
<path d="M0 0 C0.66 0.33 1.32 0.66 2 1 C0.68 2.65 -0.64 4.3 -2 6 C-2.99 5.67 -3.98 5.34 -5 5 C-5 4.34 -5 3.68 -5 3 C-2.625 1.3125 -2.625 1.3125 0 0 Z " fill="#E7C8AA" transform="translate(424,306)"/>
<path d="M0 0 C2.25245881 2.68841859 3.88213958 4.64641875 5 8 C3.68 7.34 2.36 6.68 1 6 C1 5.34 1 4.68 1 4 C0.34 3.67 -0.32 3.34 -1 3 C-0.67 2.01 -0.34 1.02 0 0 Z " fill="#583E63" transform="translate(571,175)"/>
<path d="M0 0 C1.32 1.32 2.64 2.64 4 4 C0.86650268 5.04449911 0.01031744 4.93423645 -3 4 C-2.01 2.68 -1.02 1.36 0 0 Z " fill="#5D4168" transform="translate(532,129)"/>
</svg>
