<?xml version="1.0" encoding="UTF-8"?>
<svg version="1.1" xmlns="http://www.w3.org/2000/svg" width="150px" height="150px" viewBox="0 0 508 508">
<path d="M0 0 C2.44225447 1.66159248 4.74768159 3.38773224 7.0390625 5.25 C7.86148438 5.86875 8.68390625 6.4875 9.53125 7.125 C18.87795646 15.04495064 24.55982252 26.3700291 27.0390625 38.25 C27.11897354 40.05581755 27.14676073 41.86431809 27.13671875 43.671875 C27.13349609 44.69667969 27.13027344 45.72148438 27.12695312 46.77734375 C27.11857422 47.84082031 27.11019531 48.90429688 27.1015625 50 C27.09705078 51.07894531 27.09253906 52.15789062 27.08789062 53.26953125 C27.07611977 55.92974383 27.05967649 58.58984365 27.0390625 61.25 C27.65265625 61.52328125 28.26625 61.7965625 28.8984375 62.078125 C32.38801491 63.9884776 33.84970509 66.58581807 35.0390625 70.25 C36.17632469 78.28793788 35.83248341 84.70035678 31.03515625 91.3828125 C25.80506901 96.2751446 21.6883698 97.70995552 14.66992188 97.6015625 C13.82236328 97.56804687 12.97480469 97.53453125 12.1015625 97.5 C11.22693359 97.48195313 10.35230469 97.46390625 9.45117188 97.4453125 C7.31332142 97.39858353 5.17604205 97.32685441 3.0390625 97.25 C3.07515625 98.46300781 3.11125 99.67601563 3.1484375 100.92578125 C3.14532765 104.45623966 2.6813332 107.15495407 1.2890625 110.4375 C0.96421875 111.23542969 0.639375 112.03335938 0.3046875 112.85546875 C-1.15360796 115.61452776 -2.98984312 117.83824027 -4.9609375 120.25 C-3.99381836 120.2593457 -3.02669922 120.26869141 -2.03027344 120.27832031 C1.6156745 120.31869993 5.26082032 120.38458086 8.90625 120.45751953 C10.47320114 120.48545493 12.04028601 120.50680341 13.60742188 120.52099609 C30.11384516 120.67930578 42.3884819 124.05736614 54.7890625 135.5625 C58.67312193 139.60339794 61.35414955 144.36208155 64.0390625 149.25 C64.6990625 147.93 65.3590625 146.61 66.0390625 145.25 C105.9690625 145.25 145.8990625 145.25 187.0390625 145.25 C186.34845952 152.15602983 185.47804978 158.58465544 183.98193359 165.30200195 C183.67206764 166.72592003 183.67206764 166.72592003 183.35594177 168.17860413 C182.91091733 170.22081993 182.46341658 172.26249742 182.0136528 174.3036747 C181.30224348 177.53486593 180.59863069 180.76766738 179.89712524 184.00102234 C177.90278987 193.18711139 175.89535734 202.37031474 173.88085938 211.55200195 C172.64590179 217.18325818 171.42056462 222.81653863 170.20106888 228.45116234 C169.73514662 230.59420672 169.26543989 232.73643194 168.79188156 234.8778019 C168.1313914 237.86497933 167.48307933 240.85456198 166.83740234 243.8449707 C166.6390126 244.72765625 166.44062286 245.6103418 166.23622131 246.51977539 C164.97568911 252.39341036 164.97568911 252.39341036 166.0390625 258.25 C167.36859541 260.05125508 167.36859541 260.05125508 169.13671875 261.5546875 C170.08575073 262.42444214 170.08575073 262.42444214 171.05395508 263.31176758 C171.72966553 263.91013428 172.40537598 264.50850098 173.1015625 265.125 C173.78822998 265.74850342 174.47489746 266.37200684 175.18237305 267.0144043 C177.12400461 268.77192951 179.07809483 270.51410523 181.0390625 272.25 C181.83828125 272.96027344 182.6375 273.67054688 183.4609375 274.40234375 C184.68638176 275.47840534 185.91658482 276.54908105 187.15234375 277.61328125 C189.47565037 279.62873772 191.75654715 281.68848462 194.0390625 283.75 C197.01968971 286.43983431 200.01151483 289.11310364 203.0390625 291.75 C206.06661017 294.38689636 209.05843529 297.06016569 212.0390625 299.75 C215.66888391 303.02515184 219.32545031 306.26521208 223.01171875 309.4765625 C226.70864043 312.71047858 230.37220498 315.982083 234.0390625 319.25 C240.54933223 317.5000395 245.71918148 313.85276306 251.31835938 310.23828125 C259.97177794 304.78143404 268.37289554 302.71436718 278.53515625 304.75 C283.70546087 306.28452549 287.14063793 308.55149464 291.0390625 312.25 C290.42391475 315.72929139 289.09508534 317.79719357 286.93359375 320.56640625 C286.28712891 321.40300781 285.64066406 322.23960937 284.97460938 323.1015625 C284.27400391 323.99617188 283.57339844 324.89078125 282.8515625 325.8125 C281.37760475 327.7190466 279.90497288 329.6266189 278.43359375 331.53515625 C277.69189941 332.49566895 276.95020508 333.45618164 276.18603516 334.44580078 C273.07840548 338.50473125 270.05438779 342.62228846 267.0390625 346.75 C259.51569808 357.02576139 251.78674263 367.14281289 244.0390625 377.25 C238.24437441 376.19787072 233.65134908 372.2797563 228.8515625 369.0625 C227.77600098 368.34360596 226.70043945 367.62471191 225.59228516 366.8840332 C216.94214324 361.0220761 208.89978487 354.66275562 200.96630859 347.87841797 C197.77518063 345.18208866 194.50761161 342.58560466 191.2265625 340 C190.65728027 339.54584717 190.08799805 339.09169434 189.50146484 338.6237793 C186.79808094 336.49664085 184.20067006 334.62794034 181.0390625 333.25 C180.78382813 333.82234375 180.52859375 334.3946875 180.265625 334.984375 C178.90819091 337.49173733 177.31932146 339.3830456 175.4140625 341.5 C174.46660156 342.55960937 174.46660156 342.55960937 173.5 343.640625 C173.01789063 344.17171875 172.53578125 344.7028125 172.0390625 345.25 C169.05321572 344.64972294 167.02931204 343.75849464 164.5625 341.984375 C163.90113037 341.51314209 163.23976074 341.04190918 162.55834961 340.55639648 C161.85073486 340.04278564 161.14312012 339.5291748 160.4140625 339 C159.66842041 338.46640869 158.92277832 337.93281738 158.15454102 337.38305664 C155.77750277 335.6791444 153.40737261 333.96601925 151.0390625 332.25 C149.90235107 331.42701416 149.90235107 331.42701416 148.74267578 330.58740234 C142.13685544 325.80377893 142.13685544 325.80377893 139.7421875 324.06665039 C132.26695574 318.65905334 124.66854677 313.43680198 117.0390625 308.25 C120.53138274 316.92955887 124.42251025 325.35094267 128.5390625 333.75 C129.79210059 336.32144628 131.04141413 338.89468475 132.2890625 341.46875 C132.6039563 342.11835693 132.9188501 342.76796387 133.24328613 343.43725586 C136.96533794 351.13630109 140.53849496 358.90370421 144.11401367 366.67163086 C147.00345971 372.92833325 149.94420608 379.15342908 152.96484375 385.34765625 C153.45348404 386.35111588 153.45348404 386.35111588 153.95199585 387.37484741 C155.53391324 390.6206 157.12298027 393.86257314 158.72265625 397.09960938 C159.28726562 398.25396484 159.851875 399.40832031 160.43359375 400.59765625 C160.93737549 401.61867432 161.44115723 402.63969238 161.96020508 403.69165039 C163.0390625 406.25 163.0390625 406.25 163.0390625 409.25 C163.85761719 409.27578125 164.67617188 409.3015625 165.51953125 409.328125 C175.03845282 409.76946594 184.46267424 410.79432875 193.9140625 412 C195.14922607 412.14469727 196.38438965 412.28939453 197.65698242 412.43847656 C206.32788353 413.59498611 213.94806364 415.42124466 220.4765625 421.53125 C221.25 422.62953125 221.25 422.62953125 222.0390625 423.75 C222.8434375 424.84828125 222.8434375 424.84828125 223.6640625 425.96875 C226.14796666 430.08977281 227.14634069 433.11072335 227.08984375 437.92382812 C227.07884644 439.13915222 227.07884644 439.13915222 227.06762695 440.37902832 C227.05820068 440.99644897 227.04877441 441.61386963 227.0390625 442.25 C216.17524023 445.25633679 205.3095448 448.25579513 194.44140339 451.24648285 C189.39497195 452.63538882 184.34921679 454.02665715 179.30493164 455.42333984 C174.43705979 456.77108278 169.56751149 458.11259961 164.69673729 459.44981384 C162.83859362 459.96112116 160.98106533 460.47467026 159.1241703 460.99049377 C156.52358195 461.71249476 153.92092134 462.42649974 151.31762695 463.13867188 C150.5501413 463.35373886 149.78265564 463.56880585 148.99191284 463.79039001 C145.26047356 464.80225354 141.9129101 465.50783711 138.0390625 465.25 C137.87003418 464.3748877 137.70100586 463.49977539 137.52685547 462.59814453 C133.95933178 444.82126975 130.51499372 430.58532483 117.71044922 417.06054688 C115.14591465 414.28248839 112.90782648 411.28836321 110.6640625 408.25 C109.95507812 407.321875 109.24609375 406.39375 108.515625 405.4375 C107.0390625 403.25 107.0390625 403.25 107.0390625 401.25 C105.59273438 402.13365234 105.59273438 402.13365234 104.1171875 403.03515625 C102.84153291 403.79492112 101.56546965 404.55400012 100.2890625 405.3125 C99.33773437 405.89741211 99.33773437 405.89741211 98.3671875 406.49414062 C93.64142968 409.27544601 93.64142968 409.27544601 91.01049805 409.16430664 C88.14052155 407.83327729 87.48017567 406.06439597 86.04296875 403.2734375 C85.49092773 402.2215625 84.93888672 401.1696875 84.37011719 400.0859375 C83.78649414 398.94382812 83.20287109 397.80171875 82.6015625 396.625 C81.66983306 394.84034841 80.73285037 393.05852569 79.7953186 391.2769165 C79.15504514 390.06001041 78.51620381 388.8423498 77.87875366 387.6239624 C74.80574463 381.76212158 71.5685436 375.99867386 68.2890625 370.25 C67.22765793 368.38423213 66.16645637 366.51834875 65.10546875 364.65234375 C64.5964502 363.75757324 64.08743164 362.86280273 63.56298828 361.94091797 C59.67266078 355.0714547 55.85978186 348.15834359 52.0390625 341.25 C51.83152344 342.01183594 51.62398437 342.77367187 51.41015625 343.55859375 C48.43283984 353.5369638 44.24916925 360.8977383 35.12890625 366.27734375 C29.72704239 368.79148226 24.92807104 369.53558487 19.01416016 369.47705078 C18.23299835 369.47734283 17.45183655 369.47763489 16.64700317 369.47793579 C14.08226147 369.47654992 11.51781553 369.46102398 8.953125 369.4453125 C7.16808226 369.44157972 5.38303747 369.438734 3.59799194 369.43673706 C-1.08735873 369.42912143 -5.7725843 369.40949079 -10.45788574 369.3873291 C-16.08637405 369.36321758 -21.71490433 369.35407983 -27.34342957 369.34242249 C-35.88268573 369.32306515 -44.42166771 369.28472816 -52.9609375 369.25 C-52.9609375 382.45 -52.9609375 395.65 -52.9609375 409.25 C-29.2009375 409.25 -5.4409375 409.25 19.0390625 409.25 C19.0390625 417.17 19.0390625 425.09 19.0390625 433.25 C13.7590625 433.25 8.4790625 433.25 3.0390625 433.25 C3.08546875 434.76851563 3.131875 436.28703125 3.1796875 437.8515625 C3.21721634 439.85935528 3.2536153 441.86716939 3.2890625 443.875 C3.32257813 444.87402344 3.35609375 445.87304688 3.390625 446.90234375 C3.47221373 453.06229285 3.1523313 456.56627786 -0.9609375 461.25 C-4.78023922 464.87833663 -7.84372756 465.56000458 -12.9609375 465.75 C-18.07814744 465.56000458 -21.14163578 464.87833663 -24.9609375 461.25 C-28.9609375 455.25 -28.9609375 455.25 -28.9609375 433.25 C-55.3609375 433.25 -81.7609375 433.25 -108.9609375 433.25 C-108.9609375 440.51 -108.9609375 447.77 -108.9609375 455.25 C-114.13335129 463.00862069 -114.13335129 463.00862069 -118.9609375 465.25 C-124.5607087 466.00381535 -129.29593741 466.02303575 -134.4609375 463.625 C-138.02607436 460.23811998 -140.65732869 457.66544878 -141.28125 452.70166016 C-141.35407359 449.74977605 -141.3099399 446.82603303 -141.2109375 443.875 C-141.19289063 442.85277344 -141.17484375 441.83054687 -141.15625 440.77734375 C-141.10934307 438.26782302 -141.03760674 435.75878783 -140.9609375 433.25 C-146.2409375 433.25 -151.5209375 433.25 -156.9609375 433.25 C-156.9609375 425.33 -156.9609375 417.41 -156.9609375 409.25 C-133.2009375 409.25 -109.4409375 409.25 -84.9609375 409.25 C-84.9609375 396.05 -84.9609375 382.85 -84.9609375 369.25 C-88.1165625 369.3325 -91.2721875 369.415 -94.5234375 369.5 C-113.80047077 369.63696996 -131.40033629 362.95483831 -145.9609375 350.25 C-146.92902344 349.47785156 -147.89710938 348.70570313 -148.89453125 347.91015625 C-158.30550205 340.05441324 -164.90226004 328.69571904 -168.9609375 317.25 C-169.46072617 315.94153862 -169.46072617 315.94153862 -169.97061157 314.60664368 C-174.22636503 301.51576193 -173.54872801 287.95317829 -173.49823952 274.33790326 C-173.48799244 270.70352353 -173.4975358 267.06918085 -173.50378418 263.43479919 C-173.5110205 257.34358342 -173.5015726 251.25256296 -173.48242188 245.16137695 C-173.46059202 238.13728465 -173.46776458 231.11365579 -173.4897275 224.0895744 C-173.50791501 218.02801046 -173.51042559 211.96658543 -173.49997282 205.90500301 C-173.49376499 202.29766581 -173.49282826 198.69054622 -173.50611877 195.08322334 C-173.51988648 191.06765619 -173.5007734 187.05288256 -173.47851562 183.03735352 C-173.48661255 181.85538391 -173.49470947 180.67341431 -173.50305176 179.45562744 C-173.42211971 171.56291041 -172.34349554 166.11001653 -166.99609375 160.0078125 C-166.34511719 159.46898437 -165.69414062 158.93015625 -165.0234375 158.375 C-164.37503906 157.82070312 -163.72664063 157.26640625 -163.05859375 156.6953125 C-157.94887666 153.17465082 -153.17208067 152.86735949 -147.1484375 152.625 C-146.36017578 152.58632812 -145.57191406 152.54765625 -144.75976562 152.5078125 C-142.8271837 152.41411156 -140.89409374 152.33099221 -138.9609375 152.25 C-138.57615234 151.34121094 -138.57615234 151.34121094 -138.18359375 150.4140625 C-132.80201508 138.63619673 -123.91255577 129.24562299 -112.01171875 123.93359375 C-107.1050362 122.13049786 -102.99050384 121.16781554 -97.7578125 121.21069336 C-96.40961426 121.2192057 -96.40961426 121.2192057 -95.03417969 121.22789001 C-94.0079248 121.23883446 -94.0079248 121.23883446 -92.9609375 121.25 C-92.97426117 120.63105362 -92.98758484 120.01210724 -93.00131226 119.37440491 C-93.13460137 112.90142713 -93.22477467 106.42884246 -93.29052734 99.95483398 C-93.3206019 97.54256339 -93.36147295 95.13040125 -93.41357422 92.71850586 C-93.48679645 89.2404497 -93.52048893 85.76384562 -93.546875 82.28515625 C-93.57784271 81.21604507 -93.60881042 80.1469339 -93.64071655 79.04542542 C-93.64395331 71.75765898 -92.1148226 66.60635802 -86.9609375 61.25 C-86.3009375 61.25 -85.6409375 61.25 -84.9609375 61.25 C-84.98712158 60.63181396 -85.01330566 60.01362793 -85.0402832 59.37670898 C-85.6928136 41.57667095 -84.63022921 27.6081889 -72.9609375 13.25 C-72.3421875 12.42757812 -71.7234375 11.60515625 -71.0859375 10.7578125 C-54.25015514 -9.11088653 -22.01325939 -13.01047521 0 0 Z M-59.7109375 24.0625 C-67.56833086 33.53074849 -69.42418446 45.20557898 -68.9609375 57.25 C-65.9909375 57.25 -63.0209375 57.25 -59.9609375 57.25 C-59.73019531 56.59773438 -59.49945313 55.94546875 -59.26171875 55.2734375 C-55.885072 46.22455805 -51.75598731 40.63957278 -42.9609375 36.25 C-36.63673252 33.80033506 -30.73188107 33.87778971 -24.02050781 33.87939453 C-21.96595965 33.87501072 -19.91354562 33.83860314 -17.859375 33.80078125 C-16.55226562 33.79691406 -15.24515625 33.79304688 -13.8984375 33.7890625 C-12.71121094 33.78084473 -11.52398437 33.77262695 -10.30078125 33.76416016 C-5.38094078 34.4798387 -2.2075926 36.68968754 0.87109375 40.54296875 C2.34219211 43.9525713 2.55357952 46.86066428 2.7265625 50.5625 C2.79230469 51.81675781 2.85804688 53.07101563 2.92578125 54.36328125 C2.98185547 55.79220703 2.98185547 55.79220703 3.0390625 57.25 C5.6790625 57.25 8.3190625 57.25 11.0390625 57.25 C10.67282488 42.65543101 8.72197017 31.20826415 -1.80859375 20.34375 C-10.94143782 11.77376511 -20.67214198 9.75007634 -32.83984375 9.97265625 C-43.92899443 10.48375904 -52.3202367 16.186393 -59.7109375 24.0625 Z M-76.9609375 97.25 C-76.9609375 105.17 -76.9609375 113.09 -76.9609375 121.25 C-71.6809375 121.25 -66.4009375 121.25 -60.9609375 121.25 C-60.9609375 113.33 -60.9609375 105.41 -60.9609375 97.25 C-66.2409375 97.25 -71.5209375 97.25 -76.9609375 97.25 Z " fill="#718798" transform="translate(196.9609375,22.75)"/>
<path d="M0 0 C2.44225447 1.66159248 4.74768159 3.38773224 7.0390625 5.25 C7.86148438 5.86875 8.68390625 6.4875 9.53125 7.125 C18.87795646 15.04495064 24.55982252 26.3700291 27.0390625 38.25 C27.11897354 40.05581755 27.14676073 41.86431809 27.13671875 43.671875 C27.13349609 44.69667969 27.13027344 45.72148438 27.12695312 46.77734375 C27.11857422 47.84082031 27.11019531 48.90429688 27.1015625 50 C27.09705078 51.07894531 27.09253906 52.15789062 27.08789062 53.26953125 C27.07611977 55.92974383 27.05967649 58.58984365 27.0390625 61.25 C27.65265625 61.52328125 28.26625 61.7965625 28.8984375 62.078125 C32.38801491 63.9884776 33.84970509 66.58581807 35.0390625 70.25 C36.17632469 78.28793788 35.83248341 84.70035678 31.03515625 91.3828125 C25.80506901 96.2751446 21.6883698 97.70995552 14.66992188 97.6015625 C13.82236328 97.56804687 12.97480469 97.53453125 12.1015625 97.5 C11.22693359 97.48195313 10.35230469 97.46390625 9.45117188 97.4453125 C7.31332142 97.39858353 5.17604205 97.32685441 3.0390625 97.25 C3.07515625 98.46300781 3.11125 99.67601563 3.1484375 100.92578125 C3.14532765 104.45623966 2.6813332 107.15495407 1.2890625 110.4375 C0.96421875 111.23542969 0.639375 112.03335938 0.3046875 112.85546875 C-1.15360796 115.61452776 -2.98984312 117.83824027 -4.9609375 120.25 C-3.99381836 120.2593457 -3.02669922 120.26869141 -2.03027344 120.27832031 C1.6156745 120.31869993 5.26082032 120.38458086 8.90625 120.45751953 C10.47320114 120.48545493 12.04028601 120.50680341 13.60742188 120.52099609 C30.11384516 120.67930578 42.3884819 124.05736614 54.7890625 135.5625 C60.79340571 141.90832244 64.64140395 148.40854058 65.0390625 157.25 C64.52929688 160.92333984 64.52929688 160.92333984 63.6328125 164.7109375 C63.47287811 165.40607452 63.31294373 166.10121155 63.14816284 166.81741333 C62.80318298 168.31101861 62.45225408 169.80326028 62.09588623 171.29418945 C61.13597442 175.31228792 60.22049923 179.34062437 59.296875 183.3671875 C59.1063858 184.19156311 58.91589661 185.01593872 58.71963501 185.86529541 C56.81567118 194.13311136 55.09975313 202.43541565 53.4140625 210.75 C52.84728601 213.53144048 52.27920777 216.31261437 51.7109375 219.09375 C51.57313873 219.76878571 51.43533997 220.44382141 51.29336548 221.13931274 C49.78481246 228.51690538 48.23261506 235.88495441 46.6640625 243.25 C46.41317871 244.43787109 46.16229492 245.62574219 45.90380859 246.84960938 C45.67258301 247.93048828 45.44135742 249.01136719 45.203125 250.125 C45.00154785 251.07117188 44.7999707 252.01734375 44.59228516 252.9921875 C44.0390625 255.25 44.0390625 255.25 43.0390625 257.25 C42.16362793 257.09700439 41.28819336 256.94400879 40.38623047 256.78637695 C3.49968844 251.54190027 -26.26213753 270.43255639 -57.42967224 287.59986877 C-71.40138918 295.28298056 -85.03781076 300.04418957 -101.28515625 296.53125 C-115.50848492 292.01475127 -127.80500495 283.64607612 -134.9609375 270.25 C-139.44388538 260.93082846 -141.10747604 252.76153289 -141.12207031 242.49169922 C-141.12703522 241.64349106 -141.13200012 240.7952829 -141.13711548 239.92137146 C-141.15164487 237.13246835 -141.15852454 234.34362215 -141.1640625 231.5546875 C-141.16688988 230.59543491 -141.16971725 229.63618233 -141.17263031 228.64786148 C-141.18758755 223.56894916 -141.19683821 218.49006497 -141.20117188 213.41113281 C-141.2066436 208.19647354 -141.23065425 202.98207706 -141.25914383 197.76749992 C-141.27788105 193.73000364 -141.28298173 189.69256918 -141.28450775 185.65503311 C-141.28751111 183.73433118 -141.29546004 181.81362973 -141.30869293 179.89297104 C-141.42334087 161.9699468 -139.93991371 147.60936121 -127.1484375 133.9375 C-118.9192068 126.19980331 -109.18018927 121.15642739 -97.78515625 121.22216797 C-96.43103638 121.22819534 -96.43103638 121.22819534 -95.04956055 121.23434448 C-94.01569214 121.24209396 -94.01569214 121.24209396 -92.9609375 121.25 C-92.97426117 120.63105362 -92.98758484 120.01210724 -93.00131226 119.37440491 C-93.13460137 112.90142713 -93.22477467 106.42884246 -93.29052734 99.95483398 C-93.3206019 97.54256339 -93.36147295 95.13040125 -93.41357422 92.71850586 C-93.48679645 89.2404497 -93.52048893 85.76384562 -93.546875 82.28515625 C-93.57784271 81.21604507 -93.60881042 80.1469339 -93.64071655 79.04542542 C-93.64395331 71.75765898 -92.1148226 66.60635802 -86.9609375 61.25 C-86.3009375 61.25 -85.6409375 61.25 -84.9609375 61.25 C-84.98712158 60.63181396 -85.01330566 60.01362793 -85.0402832 59.37670898 C-85.6928136 41.57667095 -84.63022921 27.6081889 -72.9609375 13.25 C-72.3421875 12.42757812 -71.7234375 11.60515625 -71.0859375 10.7578125 C-54.25015514 -9.11088653 -22.01325939 -13.01047521 0 0 Z M-59.7109375 24.0625 C-67.56833086 33.53074849 -69.42418446 45.20557898 -68.9609375 57.25 C-65.9909375 57.25 -63.0209375 57.25 -59.9609375 57.25 C-59.73019531 56.59773438 -59.49945313 55.94546875 -59.26171875 55.2734375 C-55.885072 46.22455805 -51.75598731 40.63957278 -42.9609375 36.25 C-36.63673252 33.80033506 -30.73188107 33.87778971 -24.02050781 33.87939453 C-21.96595965 33.87501072 -19.91354562 33.83860314 -17.859375 33.80078125 C-16.55226562 33.79691406 -15.24515625 33.79304688 -13.8984375 33.7890625 C-12.71121094 33.78084473 -11.52398437 33.77262695 -10.30078125 33.76416016 C-5.38094078 34.4798387 -2.2075926 36.68968754 0.87109375 40.54296875 C2.34219211 43.9525713 2.55357952 46.86066428 2.7265625 50.5625 C2.79230469 51.81675781 2.85804688 53.07101563 2.92578125 54.36328125 C2.98185547 55.79220703 2.98185547 55.79220703 3.0390625 57.25 C5.6790625 57.25 8.3190625 57.25 11.0390625 57.25 C10.67282488 42.65543101 8.72197017 31.20826415 -1.80859375 20.34375 C-10.94143782 11.77376511 -20.67214198 9.75007634 -32.83984375 9.97265625 C-43.92899443 10.48375904 -52.3202367 16.186393 -59.7109375 24.0625 Z M-76.9609375 97.25 C-76.9609375 105.17 -76.9609375 113.09 -76.9609375 121.25 C-71.6809375 121.25 -66.4009375 121.25 -60.9609375 121.25 C-60.9609375 113.33 -60.9609375 105.41 -60.9609375 97.25 C-66.2409375 97.25 -71.5209375 97.25 -76.9609375 97.25 Z " fill="#FECDB6" transform="translate(196.9609375,22.75)"/>
<path d="M0 0 C1.18239258 0.01353516 1.18239258 0.01353516 2.38867188 0.02734375 C4.32174666 0.05077496 6.2546638 0.08664162 8.1875 0.125 C8.02549606 1.42369522 7.86349213 2.72239044 7.69657898 4.06044006 C7.17519343 8.77522272 7.039497 13.41810307 7.04223633 18.15795898 C7.03887772 19.01127808 7.0355191 19.86459717 7.03205872 20.74377441 C7.02263827 23.53622941 7.02061033 26.3286239 7.01953125 29.12109375 C7.01631322 31.07967655 7.01294875 33.03825912 7.00944519 34.99684143 C7.00347674 39.09108029 7.00160301 43.18529811 7.00219727 47.27954102 C7.00229893 52.5055895 6.98863214 57.73150225 6.97142506 62.95751858 C6.96026692 66.99917716 6.95827921 71.04080326 6.95880699 75.08247566 C6.95763319 77.00843843 6.95324539 78.93440221 6.94547462 80.86034966 C6.83294903 98.63881629 6.83294903 98.63881629 12.4375 115.3125 C12.74324951 115.91489502 13.04899902 116.51729004 13.36401367 117.13793945 C15.08942558 120.42509665 16.9080607 123.16324509 19.5 125.8125 C22.74388057 129.23612065 23.0725643 132.59531312 23.7109375 137.1640625 C25.95762127 151.12296656 33.09559734 163.64356138 44.3125 172.1875 C56.30031755 180.62576189 67.48783055 183.41733858 81.9375 183.44384766 C83.19687881 183.45389328 84.45625763 183.4639389 85.75379944 183.47428894 C89.18502174 183.50144055 92.61620333 183.51669394 96.04750443 183.52971697 C99.64166142 183.54541294 103.23573608 183.57218233 106.82983398 183.5977478 C113.62586055 183.64442164 120.4219028 183.68122066 127.21800709 183.71442068 C134.95932974 183.75272289 142.70056946 183.80211167 150.44182205 183.85240483 C166.35698797 183.95555508 182.27220052 184.04487011 198.1875 184.125 C198.28784977 193.38492216 196.3910678 200.63367993 189.890625 207.59375 C182.88637943 213.8911451 175.55320438 216.44499615 166.16259766 216.35205078 C165.38143585 216.35234283 164.60027405 216.35263489 163.79544067 216.35293579 C161.23069897 216.35154992 158.66625303 216.33602398 156.1015625 216.3203125 C154.31651976 216.31657972 152.53147497 216.313734 150.74642944 216.31173706 C146.06107877 216.30412143 141.3758532 216.28449079 136.69055176 216.2623291 C131.06206345 216.23821758 125.43353317 216.22907983 119.80500793 216.21742249 C111.26575177 216.19806515 102.72676979 216.15972816 94.1875 216.125 C94.1875 229.325 94.1875 242.525 94.1875 256.125 C117.9475 256.125 141.7075 256.125 166.1875 256.125 C166.1875 264.045 166.1875 271.965 166.1875 280.125 C160.9075 280.125 155.6275 280.125 150.1875 280.125 C150.23390625 281.64351563 150.2803125 283.16203125 150.328125 284.7265625 C150.36565384 286.73435528 150.4020528 288.74216939 150.4375 290.75 C150.47101563 291.74902344 150.50453125 292.74804688 150.5390625 293.77734375 C150.62065123 299.93729285 150.3007688 303.44127786 146.1875 308.125 C142.36819828 311.75333663 139.30470994 312.43500458 134.1875 312.625 C129.07029006 312.43500458 126.00680172 311.75333663 122.1875 308.125 C118.1875 302.125 118.1875 302.125 118.1875 280.125 C91.7875 280.125 65.3875 280.125 38.1875 280.125 C38.1875 287.385 38.1875 294.645 38.1875 302.125 C33.01508621 309.88362069 33.01508621 309.88362069 28.1875 312.125 C22.5877288 312.87881535 17.85250009 312.89803575 12.6875 310.5 C9.12236314 307.11311998 6.49110881 304.54044878 5.8671875 299.57666016 C5.79436391 296.62477605 5.8384976 293.70103303 5.9375 290.75 C5.95554687 289.72777344 5.97359375 288.70554687 5.9921875 287.65234375 C6.03909443 285.14282302 6.11083076 282.63378783 6.1875 280.125 C0.9075 280.125 -4.3725 280.125 -9.8125 280.125 C-9.8125 272.205 -9.8125 264.285 -9.8125 256.125 C13.9475 256.125 37.7075 256.125 62.1875 256.125 C62.1875 242.925 62.1875 229.725 62.1875 216.125 C59.031875 216.2075 55.87625 216.29 52.625 216.375 C33.34796673 216.51196996 15.74810121 209.82983831 1.1875 197.125 C0.21941406 196.35285156 -0.74867187 195.58070313 -1.74609375 194.78515625 C-11.15706455 186.92941324 -17.75382254 175.57071904 -21.8125 164.125 C-22.14569244 163.25269241 -22.47888489 162.38038483 -22.82217407 161.48164368 C-27.07792753 148.39076193 -26.40029051 134.82817829 -26.34980202 121.21290326 C-26.33955494 117.57852353 -26.3490983 113.94418085 -26.35534668 110.30979919 C-26.362583 104.21858342 -26.3531351 98.12756296 -26.33398438 92.03637695 C-26.31215452 85.01228465 -26.31932708 77.98865579 -26.34129 70.9645744 C-26.35947751 64.90301046 -26.36198809 58.84158543 -26.35153532 52.78000301 C-26.34532749 49.17266581 -26.34439076 45.56554622 -26.35768127 41.95822334 C-26.37144898 37.94265619 -26.3523359 33.92788256 -26.33007812 29.91235352 C-26.33817505 28.73038391 -26.34627197 27.54841431 -26.35461426 26.33062744 C-26.27368221 18.43791041 -25.19505804 12.98501653 -19.84765625 6.8828125 C-19.19667969 6.34398437 -18.54570312 5.80515625 -17.875 5.25 C-17.22660156 4.69570312 -16.57820313 4.14140625 -15.91015625 3.5703125 C-10.67161597 -0.03911004 -6.15695631 -0.13418346 0 0 Z " fill="#EE5E3B" transform="translate(49.8125,175.875)"/>
<path d="M0 0 C2.44225447 1.66159248 4.74768159 3.38773224 7.0390625 5.25 C7.86148438 5.86875 8.68390625 6.4875 9.53125 7.125 C18.87795646 15.04495064 24.55982252 26.3700291 27.0390625 38.25 C27.11897354 40.05581755 27.14676073 41.86431809 27.13671875 43.671875 C27.13188477 45.20908203 27.13188477 45.20908203 27.12695312 46.77734375 C27.11438477 48.37255859 27.11438477 48.37255859 27.1015625 50 C27.09705078 51.07894531 27.09253906 52.15789062 27.08789062 53.26953125 C27.07611977 55.92974383 27.05967649 58.58984365 27.0390625 61.25 C27.65265625 61.52328125 28.26625 61.7965625 28.8984375 62.078125 C32.38801491 63.9884776 33.84970509 66.58581807 35.0390625 70.25 C36.17632469 78.28793788 35.83248341 84.70035678 31.03515625 91.3828125 C25.80506901 96.2751446 21.6883698 97.70995552 14.66992188 97.6015625 C13.82236328 97.56804687 12.97480469 97.53453125 12.1015625 97.5 C11.22693359 97.48195313 10.35230469 97.46390625 9.45117188 97.4453125 C7.31332142 97.39858353 5.17604205 97.32685441 3.0390625 97.25 C3.09126953 99.07144531 3.09126953 99.07144531 3.14453125 100.9296875 C3.13574781 108.90856874 -0.39258262 115.68164512 -5.9609375 121.25 C-10.2609375 124.25 -10.2609375 124.25 -12.9609375 124.25 C-12.92613281 125.4565625 -12.89132813 126.663125 -12.85546875 127.90625 C-12.82730766 129.52081928 -12.80001001 131.13540379 -12.7734375 132.75 C-12.74830078 133.54148438 -12.72316406 134.33296875 -12.69726562 135.1484375 C-12.617272 141.65458588 -13.71676447 147.0174606 -17.46875 152.421875 C-23.3755563 158.18600482 -29.16437148 161.39158915 -37.5234375 161.75 C-45.47984834 161.38431538 -49.97594125 158.58628411 -55.3359375 152.8125 C-60.97766409 146.35036297 -61.24349417 140.98524435 -61.15625 132.69921875 C-61.1534201 131.68527542 -61.15059021 130.67133209 -61.14767456 129.62666321 C-61.13650375 126.39682073 -61.11140461 123.16725829 -61.0859375 119.9375 C-61.0759037 117.74414464 -61.06677855 115.55078492 -61.05859375 113.35742188 C-61.03657451 107.9881738 -61.00206575 102.61913434 -60.9609375 97.25 C-66.2409375 97.25 -71.5209375 97.25 -76.9609375 97.25 C-76.94313677 105.42228021 -76.90412659 113.59364454 -76.82884693 121.76556969 C-76.79470811 125.561077 -76.76948761 129.35618743 -76.76538086 133.15185547 C-76.76106938 136.82215437 -76.73237514 140.49156 -76.68750572 144.16157913 C-76.67462075 145.5543864 -76.67019079 146.94730107 -76.67478371 148.34016037 C-76.70575591 160.59670074 -74.54366456 167.73054581 -66.06298828 176.63623047 C-64.62136804 178.06865559 -63.16462979 179.48295311 -61.69751358 180.88924789 C-60.12243031 182.39961768 -58.56430317 183.92585148 -57.00924683 185.45681763 C-53.71543922 188.69400708 -50.40217214 191.91081073 -47.0859375 195.125 C-43.21950526 198.87327774 -39.36156687 202.62955756 -35.52392197 206.40732193 C-33.9875816 207.91125315 -32.43698955 209.39937107 -30.88528442 210.88742065 C-29.4979158 212.25001511 -29.4979158 212.25001511 -28.08251953 213.64013672 C-27.26042999 214.43604218 -26.43834045 215.23194763 -25.59133911 216.05197144 C-23.9609375 218.25 -23.9609375 218.25 -23.95333862 220.35061646 C-25.62730913 223.50614997 -28.01012384 224.79410736 -31.16607666 226.30731201 C-33.96679241 227.14365829 -36.03510261 227.49413424 -38.9609375 227.25 C-43.12561898 224.81438834 -46.27759391 221.43030479 -49.5703125 217.953125 C-50.54820304 216.96298087 -51.52849441 215.97520269 -52.51104736 214.98968506 C-54.56358996 212.91876153 -56.59499893 210.82984352 -58.61181641 208.72412109 C-61.17578023 206.04762016 -63.77264687 203.40650096 -66.38445663 200.77675247 C-68.8966168 198.24377624 -71.38987022 195.69249111 -73.8828125 193.140625 C-75.26578522 191.73215302 -75.26578522 191.73215302 -76.67669678 190.29522705 C-91.33636239 174.98666591 -93.44194162 161.88980302 -93.46484375 141.46484375 C-93.47449836 139.43803196 -93.48459182 137.41122221 -93.49510193 135.38441467 C-93.51299709 131.150677 -93.51862938 126.91712239 -93.5168457 122.68334961 C-93.5165403 117.27407856 -93.55758435 111.86598407 -93.60916233 106.45699215 C-93.64259987 102.27635864 -93.64860115 98.09600811 -93.64701653 93.91525459 C-93.65054185 91.92144253 -93.66372816 89.92762199 -93.68701363 87.93394279 C-93.88557984 69.18750519 -93.88557984 69.18750519 -88.44444275 62.49269104 C-86.9609375 61.25 -86.9609375 61.25 -84.9609375 61.25 C-84.98712158 60.63181396 -85.01330566 60.01362793 -85.0402832 59.37670898 C-85.6928136 41.57667095 -84.63022921 27.6081889 -72.9609375 13.25 C-72.3421875 12.42757812 -71.7234375 11.60515625 -71.0859375 10.7578125 C-54.25015514 -9.11088653 -22.01325939 -13.01047521 0 0 Z M-59.7109375 24.0625 C-67.56833086 33.53074849 -69.42418446 45.20557898 -68.9609375 57.25 C-65.9909375 57.25 -63.0209375 57.25 -59.9609375 57.25 C-59.73019531 56.59773438 -59.49945313 55.94546875 -59.26171875 55.2734375 C-55.885072 46.22455805 -51.75598731 40.63957278 -42.9609375 36.25 C-36.63673252 33.80033506 -30.73188107 33.87778971 -24.02050781 33.87939453 C-21.96595965 33.87501072 -19.91354562 33.83860314 -17.859375 33.80078125 C-16.55226562 33.79691406 -15.24515625 33.79304688 -13.8984375 33.7890625 C-12.71121094 33.78084473 -11.52398437 33.77262695 -10.30078125 33.76416016 C-5.38094078 34.4798387 -2.2075926 36.68968754 0.87109375 40.54296875 C2.34219211 43.9525713 2.55357952 46.86066428 2.7265625 50.5625 C2.79230469 51.81675781 2.85804688 53.07101563 2.92578125 54.36328125 C2.98185547 55.79220703 2.98185547 55.79220703 3.0390625 57.25 C5.6790625 57.25 8.3190625 57.25 11.0390625 57.25 C10.67282488 42.65543101 8.72197017 31.20826415 -1.80859375 20.34375 C-10.94143782 11.77376511 -20.67214198 9.75007634 -32.83984375 9.97265625 C-43.92899443 10.48375904 -52.3202367 16.186393 -59.7109375 24.0625 Z " fill="#FDA003" transform="translate(196.9609375,22.75)"/>
<path d="M0 0 C39.93 0 79.86 0 121 0 C119.875 11.25 119.875 11.25 119.04454041 15.07485962 C118.85843925 15.94508066 118.67233809 16.8153017 118.4805975 17.71189308 C118.27809163 18.63148497 118.07558577 19.55107685 117.86694336 20.49853516 C117.64875474 21.51078344 117.43056612 22.52303173 117.20576572 23.56595421 C116.50561618 26.80813242 115.79791372 30.04860595 115.08984375 33.2890625 C114.65350918 35.30417178 114.21767553 37.31938959 113.78234863 39.3347168 C112.17345647 46.7661252 110.55490409 54.19543952 108.9375 61.625 C105.328125 78.24875 101.71875 94.8725 98 112 C58.07 112 18.14 112 -23 112 C-19.5269864 93.47726082 -19.5269864 93.47726082 -18.203125 86.99609375 C-18.04871445 86.23671509 -17.89430389 85.47733643 -17.73521423 84.69494629 C-17.24209967 82.27539257 -16.74641813 79.85637795 -16.25 77.4375 C-16.07836334 76.59937775 -15.90672668 75.76125549 -15.72988892 74.8977356 C-12.84141431 60.81631786 -9.76367085 46.7862239 -6.54296875 32.77734375 C-5.48396584 28.14878791 -4.43986445 23.51752729 -3.42578125 18.87890625 C-3.19930908 17.84451416 -2.97283691 16.81012207 -2.73950195 15.74438477 C-1.70737952 10.51834917 -0.87575025 5.25450152 0 0 Z " fill="#FEC331" transform="translate(263,168)"/>
<path d="M0 0 C9.52730503 -0.16246812 19.05413049 -0.286708 28.58252048 -0.3626852 C33.00741704 -0.39915826 37.43136326 -0.44859684 41.85571289 -0.52807617 C46.12869993 -0.60435264 50.4007753 -0.64603486 54.67439079 -0.6641407 C56.30153692 -0.67703651 57.92863528 -0.70222069 59.55539131 -0.7401104 C72.31649685 -1.02541063 72.31649685 -1.02541063 76.52540588 1.53820801 C78.26923332 3.27005466 79.62996956 4.96843346 81 7 C82.25415504 8.14356351 83.52138962 9.2733302 84.8125 10.375 C87.90959131 13.04676542 90.964993 15.75780378 94 18.5 C96.98062721 21.18983431 99.97245233 23.86310364 103 26.5 C106.89512811 29.89253093 110.72782763 33.35194201 114.5625 36.8125 C116.69417481 38.72554149 118.8401911 40.61887612 121 42.5 C124.02754767 45.13689636 127.01937279 47.81016569 130 50.5 C130.84046875 51.24894531 131.6809375 51.99789062 132.546875 52.76953125 C134.13189127 54.21068458 135.68698787 55.68576981 137.203125 57.19921875 C138.21632813 58.18341797 138.21632813 58.18341797 139.25 59.1875 C139.83265625 59.77917969 140.4153125 60.37085938 141.015625 60.98046875 C143.03704196 62.2727762 143.03704196 62.2727762 145.67578125 61.51953125 C150.8472239 59.15561681 155.50970699 56.06723252 160.27929688 52.98828125 C168.93271544 47.53143404 177.33383304 45.46436718 187.49609375 47.5 C192.66639837 49.03452549 196.10157543 51.30149464 200 55 C199.38485225 58.47929139 198.05602284 60.54719357 195.89453125 63.31640625 C195.24806641 64.15300781 194.60160156 64.98960937 193.93554688 65.8515625 C193.23494141 66.74617188 192.53433594 67.64078125 191.8125 68.5625 C190.33854225 70.4690466 188.86591038 72.3766189 187.39453125 74.28515625 C186.65283691 75.24566895 185.91114258 76.20618164 185.14697266 77.19580078 C182.03934298 81.25473125 179.01532529 85.37228846 176 89.5 C168.47663558 99.77576139 160.74768013 109.89281289 153 120 C147.20531191 118.94787072 142.61228658 115.0297563 137.8125 111.8125 C136.73693848 111.09360596 135.66137695 110.37471191 134.55322266 109.6340332 C125.90308074 103.7720761 117.86072237 97.41275562 109.92724609 90.62841797 C106.73611813 87.93208866 103.46854911 85.33560466 100.1875 82.75 C99.33357666 82.06877075 99.33357666 82.06877075 98.46240234 81.3737793 C95.75901844 79.24664085 93.16160756 77.37794034 90 76 C89.74476563 76.57234375 89.48953125 77.1446875 89.2265625 77.734375 C87.86912841 80.24173733 86.28025896 82.1330456 84.375 84.25 C83.42753906 85.30960938 83.42753906 85.30960938 82.4609375 86.390625 C81.97882813 86.92171875 81.49671875 87.4528125 81 88 C78.01415322 87.39972294 75.99024954 86.50849464 73.5234375 84.734375 C72.86214844 84.26322266 72.20085937 83.79207031 71.51953125 83.30664062 C70.81183594 82.79294922 70.10414063 82.27925781 69.375 81.75 C68.62863281 81.21568359 67.88226563 80.68136719 67.11328125 80.13085938 C64.73731739 78.42722586 62.36804308 76.71462242 60 75 C58.4922743 73.91133811 56.98446324 72.82279443 55.4765625 71.734375 C53.23727807 70.11760189 50.99913694 68.49937297 48.76464844 66.87597656 C44.94583161 64.10546239 41.10827255 61.36935113 37.2265625 58.6875 C36.45441406 58.15189453 35.68226563 57.61628906 34.88671875 57.06445312 C33.42237067 56.05154914 31.95385935 55.04462679 30.48046875 54.04492188 C29.81917969 53.58666016 29.15789062 53.12839844 28.4765625 52.65625 C27.89986816 52.26244141 27.32317383 51.86863281 26.72900391 51.46289062 C22.08421584 47.53298804 19.60239323 42.58530657 17.03125 37.20703125 C16.66906372 36.46096115 16.30687744 35.71489105 15.93371582 34.94621277 C15.17104177 33.37177487 14.41145362 31.79583881 13.65478516 30.21850586 C12.51034939 27.83406305 11.35565106 25.45481566 10.19921875 23.07617188 C9.45511202 21.53675649 8.71160348 19.99705179 7.96875 18.45703125 C7.63008911 17.7587471 7.29142822 17.06046295 6.94250488 16.34101868 C4.38156998 10.98780225 2.15151414 5.52943598 0 0 Z " fill="#62798C" transform="translate(288,280)"/>
<path d="M0 0 C5.28 0 10.56 0 16 0 C16.02578125 1.4953125 16.0515625 2.990625 16.078125 4.53125 C16.13443476 6.52086137 16.19178143 8.51044357 16.25 10.5 C16.26417969 11.48226562 16.27835938 12.46453125 16.29296875 13.4765625 C16.54477654 21.03079627 17.93017622 26.49686113 22.96484375 32.2421875 C23.61582031 32.78101563 24.26679688 33.31984375 24.9375 33.875 C25.58589844 34.42929688 26.23429687 34.98359375 26.90234375 35.5546875 C32.5947528 39.47683154 38.27858715 39.86495393 45 39 C51.7321892 36.83952668 57.33985863 33.14557521 61 27 C63.48389817 21.21277334 63.32746779 15.55744134 63.30273438 9.36914062 C63.32271484 8.59376953 63.34269531 7.81839844 63.36328125 7.01953125 C63.36626221 6.31932861 63.36924316 5.61912598 63.37231445 4.89770508 C64 3 64 3 66.02978516 1.27587891 C69.77655598 -0.33357566 73.15204029 -0.44936894 77.16015625 -0.43359375 C77.94587509 -0.4388356 78.73159393 -0.44407745 79.54112244 -0.44947815 C81.20277734 -0.45588697 82.86447768 -0.45457609 84.52612305 -0.44604492 C87.03064163 -0.43760733 89.53282009 -0.46619072 92.03710938 -0.49804688 C108.07705487 -0.56982447 119.80026396 3.22565519 131.75 14.3125 C137.75434321 20.65832244 141.60234145 27.15854058 142 36 C141.49023438 39.67333984 141.49023438 39.67333984 140.59375 43.4609375 C140.43381561 44.15607452 140.27388123 44.85121155 140.10910034 45.56741333 C139.76412048 47.06101861 139.41319158 48.55326028 139.05682373 50.04418945 C138.09691192 54.06228792 137.18143673 58.09062437 136.2578125 62.1171875 C136.0673233 62.94156311 135.87683411 63.76593872 135.68057251 64.61529541 C133.77661384 72.88308894 132.0600703 81.18530443 130.375 89.5 C129.80954221 92.27883959 129.24291751 95.05744001 128.67578125 97.8359375 C128.53818893 98.5105603 128.40059662 99.18518311 128.25883484 99.88024902 C125.92896042 111.27230136 123.4605989 122.63561261 121 134 C120.67 134 120.34 134 120 134 C120.05486572 132.58352173 120.05486572 132.58352173 120.11083984 131.13842773 C120.0528528 122.07482579 118.73323915 116.83324573 112.46166992 109.85473633 C111.52556885 108.93329834 110.58946777 108.01186035 109.625 107.0625 C109.14447174 106.5807431 108.66394348 106.09898621 108.16885376 105.60263062 C101.75076814 99.32486698 95.89024933 95.73612271 86.65551758 95.23242188 C76.11077097 95.47590494 65.85525626 97.32467793 55.96484375 101.00390625 C54.98644531 101.33261719 54.00804687 101.66132813 53 102 C52.01 101.505 52.01 101.505 51 101 C51.25222824 100.43729904 51.50445648 99.87459808 51.764328 99.29484558 C52.27774164 96.84394704 52.27774164 96.84394704 50.3249054 94.75727844 C49.48203476 93.94059189 48.63916412 93.12390533 47.77075195 92.2824707 C47.30915176 91.82817184 46.84755157 91.37387299 46.3719635 90.9058075 C45.36630211 89.91919193 44.3549059 88.93839628 43.33858681 87.96276283 C41.72524351 86.41325941 40.12806381 84.848642 38.53422546 83.27909851 C34.56824844 79.3799959 30.57604147 75.50810565 26.58392334 71.63580322 C23.21876645 68.36979369 19.86435956 65.09342148 16.52318382 61.80287743 C14.95785115 60.26969252 13.37811173 58.75251359 11.79719543 57.23542786 C5.05365527 50.67227863 0.11134617 44.97291919 -0.45410156 35.30639648 C-0.45348035 33.66115963 -0.43160946 32.01582016 -0.390625 30.37109375 C-0.38496521 29.49598648 -0.37930542 28.62087921 -0.37347412 27.71925354 C-0.35130435 24.95808294 -0.30114771 22.19827007 -0.25 19.4375 C-0.2299098 17.5514512 -0.21166347 15.6653818 -0.1953125 13.77929688 C-0.15150368 9.18568466 -0.08261491 4.5930715 0 0 Z " fill="#548AFE" transform="translate(120,144)"/>
<path d="M0 0 C10.56 0 21.12 0 32 0 C32 13.2 32 26.4 32 40 C55.76 40 79.52 40 104 40 C104 47.92 104 55.84 104 64 C98.72 64 93.44 64 88 64 C88.04640625 65.51851563 88.0928125 67.03703125 88.140625 68.6015625 C88.17815384 70.60935528 88.2145528 72.61716939 88.25 74.625 C88.28351563 75.62402344 88.31703125 76.62304688 88.3515625 77.65234375 C88.43315123 83.81229285 88.1132688 87.31627786 84 92 C80.18069828 95.62833663 77.11720994 96.31000458 72 96.5 C66.88279006 96.31000458 63.81930172 95.62833663 60 92 C56 86 56 86 56 64 C29.6 64 3.2 64 -24 64 C-24 71.26 -24 78.52 -24 86 C-29.17241379 93.75862069 -29.17241379 93.75862069 -34 96 C-39.5997712 96.75381535 -44.33499991 96.77303575 -49.5 94.375 C-53.06513686 90.98811998 -55.69639119 88.41544878 -56.3203125 83.45166016 C-56.39313609 80.49977605 -56.3490024 77.57603303 -56.25 74.625 C-56.23195313 73.60277344 -56.21390625 72.58054687 -56.1953125 71.52734375 C-56.14840557 69.01782302 -56.07666924 66.50878783 -56 64 C-61.28 64 -66.56 64 -72 64 C-72 56.08 -72 48.16 -72 40 C-48.24 40 -24.48 40 0 40 C0 26.8 0 13.6 0 0 Z " fill="#D1E4FF" transform="translate(112,392)"/>
<path d="M0 0 C0.01401855 1.76875488 0.01401855 1.76875488 0.02832031 3.57324219 C0.06857918 8.00183121 0.13443268 12.42975143 0.20751953 16.85791016 C0.23552297 18.76439743 0.25683869 20.67099635 0.27099609 22.57763672 C0.42655571 42.35444958 3.87925417 55.27933341 18.23580933 69.5243988 C19.14541412 70.41224564 20.05501892 71.30009247 20.9921875 72.21484375 C21.94849006 73.16044416 22.90397083 74.10687632 23.8586731 75.05409241 C26.34785661 77.52071032 28.84510707 79.9789684 31.34515381 82.43457031 C35.36833226 86.38696394 39.38342515 90.34744707 43.38980484 94.31686592 C44.78809617 95.69845065 46.19294914 97.07338412 47.59786987 98.44822693 C48.43939606 99.27991898 49.28092224 100.11161102 50.14794922 100.96850586 C50.89374237 101.70080917 51.63953552 102.43311249 52.40792847 103.18760681 C54 105 54 105 54 107 C52.95585937 107.27972656 51.91171875 107.55945313 50.8359375 107.84765625 C40.94688272 110.53059189 31.17181891 113.46977948 21.43896484 116.67602539 C20.11566162 117.10709595 20.11566162 117.10709595 18.765625 117.546875 C17.98993164 117.80307617 17.21423828 118.05927734 16.41503906 118.32324219 C13.66097433 119.09500396 10.82123989 119.52979335 8 120 C8 114.72 8 109.44 8 104 C-10.48 104 -28.96 104 -48 104 C-48.06318757 96.01730406 -48.12325961 88.03553201 -48.15525055 80.05280304 C-48.17098847 76.33416365 -48.19196215 72.61573474 -48.22631836 68.8972168 C-48.25929322 65.30508067 -48.2769318 61.71314658 -48.28463173 58.12087059 C-48.29274403 56.10657961 -48.31609988 54.09236812 -48.33988953 52.07820129 C-48.34271569 36.35890306 -45.06544584 24.31413037 -34.1875 12.6875 C-24.1223988 3.22358982 -13.55651689 -0.26652375 0 0 Z " fill="#5389FD" transform="translate(104,144)"/>
<path d="M0 0 C2.00133146 4.0714777 3.99492997 8.14661459 5.98144531 12.2253418 C6.65836558 13.61244423 7.33739036 14.99852168 8.01855469 16.38354492 C8.99708807 18.37413288 9.9680025 20.36827999 10.9375 22.36328125 C11.24373291 22.98213699 11.54996582 23.60099274 11.86547852 24.23860168 C13.21723348 27.03757276 14 28.8462785 14 32 C15.22783203 32.03867187 15.22783203 32.03867187 16.48046875 32.078125 C25.99939032 32.51946594 35.42361174 33.54432875 44.875 34.75 C46.72774536 34.9670459 46.72774536 34.9670459 48.61791992 35.18847656 C57.28882103 36.34498611 64.90900114 38.17124466 71.4375 44.28125 C71.953125 45.0134375 72.46875 45.745625 73 46.5 C73.53625 47.2321875 74.0725 47.964375 74.625 48.71875 C77.10890416 52.83977281 78.10727819 55.86072335 78.05078125 60.67382812 C78.04344971 61.48404419 78.03611816 62.29426025 78.02856445 63.12902832 C78.01913818 63.74644897 78.00971191 64.36386963 78 65 C67.13617773 68.00633679 56.2704823 71.00579513 45.40234089 73.99648285 C40.35590945 75.38538882 35.31015429 76.77665715 30.26586914 78.17333984 C25.39799729 79.52108278 20.52844899 80.86259961 15.65767479 82.19981384 C13.79953112 82.71112116 11.94200283 83.22467026 10.0851078 83.74049377 C7.48451945 84.46249476 4.88185884 85.17649974 2.27856445 85.88867188 C1.12733597 86.21127235 1.12733597 86.21127235 -0.04714966 86.54039001 C-3.77858894 87.55225354 -7.1261524 88.25783711 -11 88 C-11.16902832 87.1248877 -11.33805664 86.24977539 -11.51220703 85.34814453 C-15.08311968 67.55438269 -18.54531396 53.48788907 -31.28125 39.9140625 C-34.10077807 36.77413351 -36.47514696 33.33969433 -38.875 29.875 C-39.68466769 28.72640165 -40.49453723 27.57794553 -41.3046875 26.4296875 C-42.14386719 25.22699219 -42.14386719 25.22699219 -43 24 C-39.62252909 21.17604306 -36.24853844 18.880516 -32.39453125 16.7578125 C-31.32783203 16.16613281 -30.26113281 15.57445312 -29.16210938 14.96484375 C-28.05673828 14.35769531 -26.95136719 13.75054687 -25.8125 13.125 C-23.63067298 11.92078687 -21.44967293 10.71507414 -19.26953125 9.5078125 C-18.21588379 8.92547852 -17.16223633 8.34314453 -16.07666016 7.74316406 C-12.32810809 5.61932168 -8.66945393 3.36714403 -5.0300293 1.06201172 C-3 0 -3 0 0 0 Z " fill="#E0ECFD" transform="translate(346,400)"/>
<path d="M0 0 C21.12 0 42.24 0 64 0 C64.0825 6.39375 64.165 12.7875 64.25 19.375 C64.28641602 21.37224121 64.32283203 23.36948242 64.36035156 25.42724609 C64.47267027 35.96710166 64.19355694 44.73951882 57.5625 53.4375 C55.14663568 55.85336432 53.06343248 57.5096815 50 59 C49.34 59 48.68 59 48 59 C48.05220703 60.80984375 48.05220703 60.80984375 48.10546875 62.65625 C48.13362984 64.27081928 48.16092749 65.88540379 48.1875 67.5 C48.21263672 68.29148437 48.23777344 69.08296875 48.26367188 69.8984375 C48.3436655 76.40458588 47.24417303 81.7674606 43.4921875 87.171875 C37.5853812 92.93600482 31.79656602 96.14158915 23.4375 96.5 C15.48108916 96.13431538 10.98499625 93.33628411 5.625 87.5625 C0.82168288 82.06069254 -0.3000002 77.48930549 -0.22705078 70.2722168 C-0.22734283 69.51070816 -0.22763489 68.74919952 -0.22793579 67.96461487 C-0.22654768 65.45936502 -0.21101112 62.95441634 -0.1953125 60.44921875 C-0.19158052 58.70758731 -0.18873442 56.96595376 -0.18673706 55.22431946 C-0.17911516 50.64910038 -0.15947908 46.07400907 -0.1373291 41.49884033 C-0.11323463 36.00470368 -0.10408282 30.51052421 -0.09242249 25.01634979 C-0.07305383 16.67747777 -0.03472125 8.33888589 0 0 Z " fill="#FECDB6" transform="translate(136,88)"/>
<path d="M0 0 C21.12 0 42.24 0 64 0 C64.16043524 21.22201667 64.16043524 21.22201667 64.1953125 30.27734375 C64.2192117 36.4531023 64.24746596 42.62862333 64.30175781 48.80419922 C64.34526124 53.78385392 64.36914681 58.76325386 64.37950897 63.74308395 C64.38689224 65.64168686 64.40131014 67.54027602 64.42292023 69.43877029 C64.45201408 72.10092403 64.45595352 74.76202893 64.45410156 77.42431641 C64.46848267 78.20690826 64.48286377 78.98950012 64.49768066 79.79580688 C64.45867869 84.98692729 63.37714768 87.85376005 60 92 C56.18069828 95.62833663 53.11720994 96.31000458 48 96.5 C41.3087462 96.25156236 38.19865673 94.3143755 33.625 89.5 C31.22696425 84.33499991 31.24618465 79.5997712 32 74 C34.27045582 69.10978747 37.22945327 66.4806843 42 64 C43.98 64 45.96 64 48 64 C48 53.44 48 42.88 48 32 C37.44 32 26.88 32 16 32 C16.04640625 36.40601563 16.0928125 40.81203125 16.140625 45.3515625 C16.1663651 48.87392219 16.18805046 52.39625516 16.20700073 55.9186554 C16.22808735 59.63199871 16.25624572 63.34497436 16.30175781 67.05810547 C16.34535112 70.63725786 16.36916523 74.21605464 16.37950897 77.79545212 C16.38687635 79.15818247 16.40126338 80.52089427 16.42292023 81.88347244 C16.62437692 95.08858548 16.62437692 95.08858548 12 100 C8.18069828 103.62833663 5.11720994 104.31000458 0 104.5 C-6.6912538 104.25156236 -9.80134327 102.3143755 -14.375 97.5 C-16.77303575 92.33499991 -16.75381535 87.5997712 -16 82 C-13.72954418 77.10978747 -10.77054673 74.4806843 -6 72 C-4.02 72 -2.04 72 0 72 C0 48.24 0 24.48 0 0 Z " fill="#F78E00" transform="translate(312,32)"/>
<path d="M0 0 C4.03481448 3.42082097 8.01067037 6.89303555 11.9375 10.4375 C12.78699219 11.19546875 13.63648438 11.9534375 14.51171875 12.734375 C16.10933512 14.18903355 17.67786815 15.67666839 19.20703125 17.203125 C19.88121094 17.85796875 20.55539062 18.5128125 21.25 19.1875 C21.83265625 19.77917969 22.4153125 20.37085938 23.015625 20.98046875 C25.03704196 22.2727762 25.03704196 22.2727762 27.67578125 21.51953125 C32.8472239 19.15561681 37.50970699 16.06723252 42.27929688 12.98828125 C50.93271544 7.53143404 59.33383304 5.46436718 69.49609375 7.5 C74.66639837 9.03452549 78.10157543 11.30149464 82 15 C81.38485225 18.47929139 80.05602284 20.54719357 77.89453125 23.31640625 C77.24806641 24.15300781 76.60160156 24.98960937 75.93554688 25.8515625 C75.23494141 26.74617188 74.53433594 27.64078125 73.8125 28.5625 C72.33854225 30.4690466 70.86591038 32.3766189 69.39453125 34.28515625 C68.65283691 35.24566895 67.91114258 36.20618164 67.14697266 37.19580078 C64.03934298 41.25473125 61.01532529 45.37228846 58 49.5 C50.47663558 59.77576139 42.74768013 69.89281289 35 80 C29.20531191 78.94787072 24.61228658 75.0297563 19.8125 71.8125 C18.73693848 71.09360596 17.66137695 70.37471191 16.55322266 69.6340332 C7.90348313 63.77234878 -0.1362164 57.41333358 -8.06835938 50.62841797 C-11.27586563 47.9244156 -14.57106371 45.33462118 -17.875 42.75 C-18.45266113 42.29584717 -19.03032227 41.84169434 -19.62548828 41.3737793 C-22.03659645 39.4880757 -24.4514381 37.69904127 -27 36 C-25.34813982 32.08273156 -22.69575996 29.10914624 -19.9375 25.9375 C-18.94456921 24.78058544 -17.95239377 23.6230222 -16.9609375 22.46484375 C-16.46432617 21.88589355 -15.96771484 21.30694336 -15.45605469 20.71044922 C-11.89966546 16.5327056 -8.45132983 12.2646135 -5 8 C-3.91525391 6.700625 -3.91525391 6.700625 -2.80859375 5.375 C-0.83802686 3.05269885 -0.83802686 3.05269885 0 0 Z " fill="#E0ECFD" transform="translate(406,320)"/>
<path d="M0 0 C2.44225447 1.66159248 4.74768159 3.38773224 7.0390625 5.25 C7.86148438 5.86875 8.68390625 6.4875 9.53125 7.125 C18.87795646 15.04495064 24.55982252 26.3700291 27.0390625 38.25 C27.11897354 40.05581755 27.14676073 41.86431809 27.13671875 43.671875 C27.13188477 45.20908203 27.13188477 45.20908203 27.12695312 46.77734375 C27.11438477 48.37255859 27.11438477 48.37255859 27.1015625 50 C27.09705078 51.07894531 27.09253906 52.15789062 27.08789062 53.26953125 C27.07611977 55.92974383 27.05967649 58.58984365 27.0390625 61.25 C27.65265625 61.52328125 28.26625 61.7965625 28.8984375 62.078125 C32.38801491 63.9884776 33.84970509 66.58581807 35.0390625 70.25 C36.17632469 78.28793788 35.83248341 84.70035678 31.03515625 91.3828125 C21.84049004 99.983694 16.85767906 97.25 3.0390625 97.25 C3.0390625 84.05 3.0390625 70.85 3.0390625 57.25 C5.6790625 57.25 8.3190625 57.25 11.0390625 57.25 C9.27539496 41.59358286 7.40027833 28.72042404 -5.36328125 18.09375 C-15.02311079 11.23744993 -25.42217583 10.21182262 -36.9609375 11.25 C-47.4045827 13.4707022 -55.84583379 19.58330847 -61.9609375 28.25 C-65.44130272 34.54638275 -66.82740667 40.72866166 -67.7109375 47.8125 C-67.89849609 49.18245117 -67.89849609 49.18245117 -68.08984375 50.58007812 C-68.39231349 52.80206739 -68.68243928 55.02490187 -68.9609375 57.25 C-69.78078125 57.37117188 -70.600625 57.49234375 -71.4453125 57.6171875 C-72.52296875 57.78476563 -73.600625 57.95234375 -74.7109375 58.125 C-75.77828125 58.28742188 -76.845625 58.44984375 -77.9453125 58.6171875 C-80.66677268 59.18827111 -82.5355409 59.96408218 -84.9609375 61.25 C-85.74064759 42.84164458 -85.06990508 28.14917711 -72.9609375 13.25 C-72.3421875 12.42757812 -71.7234375 11.60515625 -71.0859375 10.7578125 C-54.25015514 -9.11088653 -22.01325939 -13.01047521 0 0 Z " fill="#FFA100" transform="translate(196.9609375,22.75)"/>
<path d="M0 0 C2.05454816 -0.00438382 4.1069622 -0.04079139 6.16113281 -0.07861328 C7.46824219 -0.08248047 8.77535156 -0.08634766 10.12207031 -0.09033203 C11.30929688 -0.0985498 12.49652344 -0.10676758 13.71972656 -0.11523438 C17.84408362 0.48472692 19.86638089 1.71053696 23.05957031 4.37060547 C27.05957031 10.37060547 27.05957031 10.37060547 27.05957031 32.37060547 C5.93957031 32.37060547 -15.18042969 32.37060547 -36.94042969 32.37060547 C-36.94042969 23.2934228 -35.02709813 15.58876391 -28.64355469 8.86669922 C-19.93150307 1.2136814 -11.33677321 -0.00271085 0 0 Z " fill="#B1702B" transform="translate(172.9404296875,55.62939453125)"/>
<path d="M0 0 C4.91228344 4.16476205 9.7212542 8.42796826 14.4921875 12.75390625 C17.44335584 15.39708662 20.45999462 17.95661524 23.50390625 20.4921875 C25 22 25 22 26 25 C25.04198826 27.84535112 24.00974752 30.55339956 22.8515625 33.31640625 C22.51957855 34.12867172 22.1875946 34.94093719 21.84555054 35.77781677 C20.78088698 38.37645179 19.70304233 40.9693906 18.625 43.5625 C17.90539794 45.31410332 17.18663738 47.0660526 16.46875 48.81835938 C11.31127883 61.37744234 11.31127883 61.37744234 10 64 C7.23344582 62.70891619 4.95037933 61.2935196 2.6015625 59.34765625 C1.96371826 58.82341064 1.32587402 58.29916504 0.66870117 57.7590332 C-0.00572021 57.19917725 -0.6801416 56.63932129 -1.375 56.0625 C-2.8026354 54.88971141 -4.23103635 53.71785418 -5.66015625 52.546875 C-6.38090332 51.95583984 -7.10165039 51.36480469 -7.84423828 50.75585938 C-11.13898945 48.07229761 -14.47036735 45.43668317 -17.8125 42.8125 C-18.68237549 42.12716187 -18.68237549 42.12716187 -19.56982422 41.42797852 C-21.9994518 39.52333309 -24.4295395 37.71364033 -27 36 C-25.34813982 32.08273156 -22.69575996 29.10914624 -19.9375 25.9375 C-18.94456921 24.78058544 -17.95239377 23.6230222 -16.9609375 22.46484375 C-16.46432617 21.88589355 -15.96771484 21.30694336 -15.45605469 20.71044922 C-11.89966546 16.5327056 -8.45132983 12.2646135 -5 8 C-3.91525391 6.700625 -3.91525391 6.700625 -2.80859375 5.375 C-0.83802686 3.05269885 -0.83802686 3.05269885 0 0 Z " fill="#FECDB5" transform="translate(406,320)"/>
<path d="M0 0 C2.02736955 4.04941293 4.03896844 8.10613484 6.03637695 12.17041016 C6.71797104 13.5517612 7.40381879 14.93102188 8.09399414 16.30810547 C9.08566472 18.28859085 10.06176579 20.27610428 11.03515625 22.265625 C11.34655045 22.87931946 11.65794464 23.49301392 11.97877502 24.12530518 C13.15892989 26.56798136 14.02062275 28.48369467 13.91113281 31.22485352 C12.7420195 33.50261957 11.42902004 34.59306488 9.38671875 36.13671875 C8.63825684 36.71019043 7.88979492 37.28366211 7.11865234 37.87451172 C6.31637207 38.47279785 5.5140918 39.07108398 4.6875 39.6875 C3.47247803 40.61199951 3.47247803 40.61199951 2.23291016 41.55517578 C-0.17057341 43.38029879 -2.58402833 45.19145519 -5 47 C-6.28817459 47.97210765 -7.57597746 48.94470824 -8.86328125 49.91796875 C-11.56657741 51.95743429 -14.27944396 53.98358787 -17 56 C-20.38998985 54.58474814 -22.03807681 53.00169691 -24.171875 50.03515625 C-25.03981689 48.84176636 -25.03981689 48.84176636 -25.92529297 47.62426758 C-26.82852295 46.35619263 -26.82852295 46.35619263 -27.75 45.0625 C-28.36891113 44.20744873 -28.98782227 43.35239746 -29.62548828 42.47143555 C-30.85761689 40.76795247 -32.08637025 39.06202233 -33.31152344 37.35351562 C-35.48254097 34.32740097 -37.67837494 31.32006549 -39.875 28.3125 C-40.91732966 26.87548066 -41.95931638 25.43821184 -43 24 C-39.62252909 21.17604306 -36.24853844 18.880516 -32.39453125 16.7578125 C-31.32783203 16.16613281 -30.26113281 15.57445312 -29.16210938 14.96484375 C-28.05673828 14.35769531 -26.95136719 13.75054687 -25.8125 13.125 C-23.63067298 11.92078687 -21.44967293 10.71507414 -19.26953125 9.5078125 C-18.21588379 8.92547852 -17.16223633 8.34314453 -16.07666016 7.74316406 C-12.32810809 5.61932168 -8.66945393 3.36714403 -5.0300293 1.06201172 C-3 0 -3 0 0 0 Z " fill="#FECDB6" transform="translate(346,400)"/>
<path d="M0 0 C10.56 0 21.12 0 32 0 C32 13.2 32 26.4 32 40 C21.44 40 10.88 40 0 40 C0 26.8 0 13.6 0 0 Z " fill="#BDD1F2" transform="translate(112,392)"/>
<path d="M0 0 C21.72289157 0 21.72289157 0 28.7109375 6.62109375 C32.65777439 11.69092566 32.78760509 17.34310988 32.546875 23.58203125 C31.72332001 28.72924994 29.80654628 32.43927765 26 36 C19 40 19 40 0 40 C0 26.8 0 13.6 0 0 Z " fill="#FFC430" transform="translate(200,80)"/>
<path d="M0 0 C-0.33 13.2 -0.66 26.4 -1 40 C-21.58823529 40 -21.58823529 40 -29 33 C-33.29175047 26.8689279 -34.0126161 20.3464305 -33 13 C-31.01053492 7.9883704 -27.97601067 4.10345473 -23.25 1.4375 C-18 0 -18 0 0 0 Z " fill="#FEC330" transform="translate(137,80)"/>
<path d="M0 0 C10.56 0 21.12 0 32 0 C32.0825 3.50625 32.165 7.0125 32.25 10.625 C32.28641602 11.71893066 32.32283203 12.81286133 32.36035156 13.93994141 C32.42918861 19.99205053 32.03642982 23.40377334 28 28 C24.18069828 31.62833663 21.11720994 32.31000458 16 32.5 C10.88279006 32.31000458 7.81930172 31.62833663 4 28 C-0.79852264 22.53598882 -0.48457488 17.67158779 -0.25 10.625 C-0.1675 7.11875 -0.085 3.6125 0 0 Z " fill="#708798" transform="translate(168,456)"/>
<path d="M0 0 C10.56 0 21.12 0 32 0 C32.0825 3.50625 32.165 7.0125 32.25 10.625 C32.28641602 11.71893066 32.32283203 12.81286133 32.36035156 13.93994141 C32.42918861 19.99205053 32.03642982 23.40377334 28 28 C24.18069828 31.62833663 21.11720994 32.31000458 16 32.5 C10.88279006 32.31000458 7.81930172 31.62833663 4 28 C-0.79852264 22.53598882 -0.48457488 17.67158779 -0.25 10.625 C-0.1675 7.11875 -0.085 3.6125 0 0 Z " fill="#708798" transform="translate(56,456)"/>
<path d="M0 0 C3.78884831 3.18607699 7.15035163 6.21548885 7.75 11.3125 C8.13991687 16.57637781 7.65017901 19.86555885 4.75 24.3125 C1.0479373 28.06513733 -2.14592086 30.15064776 -7.5 30.5625 C-12.29958441 30.24252771 -16.21510676 29.27921383 -19.765625 25.84765625 C-23.36543996 21.61683924 -24.56206773 19.05113858 -24.4609375 13.46875 C-23.97175973 8.46826617 -22.02985459 4.72194747 -18.3125 1.4375 C-12.62173637 -2.51119313 -6.22685166 -3.23317298 0 0 Z " fill="#FFB401" transform="translate(320.25,209.6875)"/>
<path d="M0 0 C0.08164159 2.6881249 0.14079668 5.373723 0.1875 8.0625 C0.21263672 8.81466797 0.23777344 9.56683594 0.26367188 10.34179688 C0.33282151 15.66631856 -0.59330666 19.24346434 -3 24 C-8.30622363 19.6585443 -13.12435372 14.94965334 -17.91113281 10.05175781 C-20.67707551 7.1629135 -20.67707551 7.1629135 -24 5 C-24 4.34 -24 3.68 -24 3 C-22.83984375 3.03480469 -22.83984375 3.03480469 -21.65625 3.0703125 C-14.06872957 3.20177944 -7.0018291 0 0 0 Z " fill="#FEBFA1" transform="translate(184,148)"/>
</svg>
