<?xml version="1.0" encoding="UTF-8"?>
<svg version="1.1" xmlns="http://www.w3.org/2000/svg" width="150px" height="150px" viewBox="0 0 508 508">
<path d="M0 0 C1.01790619 0.00215515 2.03581238 0.0043103 3.08456421 0.00653076 C17.69363523 0.05620146 32.02575853 0.30709809 46.375 3.3125 C47.34985352 3.51117676 48.32470703 3.70985352 49.32910156 3.91455078 C97.7109774 14.03517194 141.69928269 35.9516877 177.375 70.3125 C178.3640332 71.26068604 178.3640332 71.26068604 179.37304688 72.22802734 C188.86130305 81.37247479 197.6012044 90.66984009 205.375 101.3125 C206.23306152 102.46355017 207.09113451 103.61459177 207.94921875 104.765625 C213.98736829 112.95680614 219.34595521 121.47054105 224.375 130.3125 C224.73948242 130.94430176 225.10396484 131.57610352 225.47949219 132.22705078 C247.00981855 169.84336237 256.83759735 212.56515288 256.75 255.625 C256.74918427 257.13927582 256.74918427 257.13927582 256.74835205 258.68414307 C256.70758601 275.19373539 255.80029309 291.11032001 252.375 307.3125 C252.15537598 308.35438477 251.93575195 309.39626953 251.70947266 310.46972656 C241.61185215 356.76299311 219.25271242 399.17663721 186.375 433.3125 C185.74287598 433.97185547 185.11075195 434.63121094 184.45947266 435.31054688 C175.31502521 444.79880305 166.01765991 453.5387044 155.375 461.3125 C154.22394983 462.17056152 153.07290823 463.02863451 151.921875 463.88671875 C143.73224019 469.92427396 135.22961724 475.30707302 126.375 480.3125 C125.66778809 480.7146875 124.96057617 481.116875 124.23193359 481.53125 C98.02902993 496.28370951 69.0887648 505.81845735 39.375 510.3125 C38.25327393 510.48910156 37.13154785 510.66570312 35.97583008 510.84765625 C24.34155216 512.50831913 12.80200733 512.71016291 1.0625 512.6875 C0.04987091 512.68728851 -0.96275818 512.68707703 -2.006073 512.68685913 C-18.21558123 512.6531376 -33.72515471 511.68948285 -49.625 508.3125 C-50.53282227 508.13058105 -51.44064453 507.94866211 -52.37597656 507.76123047 C-99.22001977 498.26168637 -142.249301 475.42120895 -176.625 442.3125 C-177.28435547 441.68037598 -177.94371094 441.04825195 -178.62304688 440.39697266 C-188.11130305 431.25252521 -196.8512044 421.95515991 -204.625 411.3125 C-205.48306152 410.16144983 -206.34113451 409.01040823 -207.19921875 407.859375 C-213.23677396 399.66974019 -218.61957302 391.16711724 -223.625 382.3125 C-224.0271875 381.60528809 -224.429375 380.89807617 -224.84375 380.16943359 C-237.8691741 357.03404164 -246.61801461 331.86287591 -251.9375 305.875 C-252.08485596 305.15610596 -252.23221191 304.43721191 -252.3840332 303.6965332 C-255.35789088 288.05024391 -255.99800362 272.57681954 -255.9375 256.6875 C-255.93534485 255.66959381 -255.9331897 254.65168762 -255.93096924 253.60293579 C-255.88129854 238.99386477 -255.63040191 224.66174147 -252.625 210.3125 C-252.42632324 209.33764648 -252.22764648 208.36279297 -252.02294922 207.35839844 C-241.90232806 158.9765226 -219.9858123 114.98821731 -185.625 79.3125 C-184.99287598 78.65314453 -184.36075195 77.99378906 -183.70947266 77.31445312 C-174.56502521 67.82619695 -165.26765991 59.0862956 -154.625 51.3125 C-153.47394983 50.45443848 -152.32290823 49.59636549 -151.171875 48.73828125 C-142.98224019 42.70072604 -134.47961724 37.31792698 -125.625 32.3125 C-124.91778809 31.9103125 -124.21057617 31.508125 -123.48193359 31.09375 C-100.34654164 18.0683259 -75.17537591 9.31948539 -49.1875 4 C-48.46860596 3.85264404 -47.74971191 3.70528809 -47.0090332 3.5534668 C-31.36274391 0.57960912 -15.88931954 -0.06050362 0 0 Z " fill="#FBD1AB" transform="translate(255.625,-0.3125)"/>
<path d="M0 0 C1.01790619 0.00215515 2.03581238 0.0043103 3.08456421 0.00653076 C17.69363523 0.05620146 32.02575853 0.30709809 46.375 3.3125 C47.34985352 3.51117676 48.32470703 3.70985352 49.32910156 3.91455078 C97.7109774 14.03517194 141.69928269 35.9516877 177.375 70.3125 C178.3640332 71.26068604 178.3640332 71.26068604 179.37304688 72.22802734 C188.86130305 81.37247479 197.6012044 90.66984009 205.375 101.3125 C206.23306152 102.46355017 207.09113451 103.61459177 207.94921875 104.765625 C213.98736829 112.95680614 219.34595521 121.47054105 224.375 130.3125 C224.73948242 130.94430176 225.10396484 131.57610352 225.47949219 132.22705078 C247.00981855 169.84336237 256.83759735 212.56515288 256.75 255.625 C256.74918427 257.13927582 256.74918427 257.13927582 256.74835205 258.68414307 C256.70758601 275.19373539 255.80029309 291.11032001 252.375 307.3125 C252.15537598 308.35438477 251.93575195 309.39626953 251.70947266 310.46972656 C240.4991599 361.86421066 214.44066197 405.00546531 177.75 442.125 C177.0576123 442.83052002 176.36522461 443.53604004 175.65185547 444.26293945 C170.86529177 449.05685665 165.81249246 453.27442052 160.375 457.3125 C159.6752002 456.86793457 158.97540039 456.42336914 158.25439453 455.96533203 C156.39682029 454.7857416 154.53846261 453.60738471 152.6796875 452.4296875 C150.50602155 451.03710246 148.34405811 449.62604975 146.1953125 448.1953125 C120.97025421 431.51709749 92.4079185 419.66543269 62.73950195 413.64160156 C58.76505013 412.80339374 55.58641298 411.84446394 52.375 409.3125 C50.26811577 405.2485361 50.14110051 401.79569015 50.1796875 397.26171875 C50.18393234 396.27350883 50.18393234 396.27350883 50.18826294 395.26533508 C50.19939076 393.17669938 50.22448052 391.08850444 50.25 389 C50.26003941 387.57748018 50.26916358 386.1549536 50.27734375 384.73242188 C50.29930553 381.25897319 50.33378354 377.78577967 50.375 374.3125 C52.2621875 373.78462891 52.2621875 373.78462891 54.1875 373.24609375 C76.57542725 366.84765844 96.05467105 358.10175014 113.375 342.3125 C114.04015625 341.72984375 114.7053125 341.1471875 115.390625 340.546875 C131.21405534 325.90650487 140.21588161 304.15416257 147.375 284.3125 C148.53515625 284.36470703 148.53515625 284.36470703 149.71875 284.41796875 C157.20533001 284.61254571 163.0137936 284.49807685 169.171875 280 C176.11922608 273.36005383 178.51300051 263.20765367 181.375 254.3125 C181.59317383 253.63751465 181.81134766 252.9625293 182.03613281 252.26708984 C186.07116454 239.55112653 191.06335942 222.92960537 185.43359375 210 C183.2263638 206.4814637 180.07635481 204.1631774 176.375 202.3125 C175.96435547 199.81225586 175.96435547 199.81225586 175.7421875 196.52734375 C175.61650391 194.77260742 175.61650391 194.77260742 175.48828125 192.98242188 C175.40964844 191.75072266 175.33101563 190.51902344 175.25 189.25 C175.16363281 188.01443359 175.07726562 186.77886719 174.98828125 185.50585938 C174.77534105 182.44188644 174.57132138 179.37757544 174.375 176.3125 C175.48875 175.879375 176.6025 175.44625 177.75 175 C181.55012334 173.61338881 181.55012334 173.61338881 183.375 170.3125 C184.31085354 164.03539541 182.88049411 158.49888504 180.625 152.6875 C180.31844482 151.8826416 180.01188965 151.0777832 179.69604492 150.24853516 C171.18245525 128.71307444 159.27599748 109.14338037 143.375 92.3125 C142.24537767 90.98308052 141.12020688 89.64986282 140 88.3125 C109.9007917 54.02139283 59.9438835 33.20689977 15.14520264 30.16088867 C-2.03159426 29.28062127 -19.86274275 29.12890254 -36.625 33.3125 C-37.54216797 33.53824707 -38.45933594 33.76399414 -39.40429688 33.99658203 C-68.34355418 41.3354944 -95.33608777 54.45351705 -117.1796875 75.0234375 C-119.27215642 76.98220234 -121.41231701 78.80647916 -123.625 80.625 C-152.3098601 105.81170643 -170.83553052 147.7584317 -174.625 185.3125 C-174.67918126 186.79390322 -174.72144136 188.27577433 -174.75390625 189.7578125 C-174.77622314 190.52295166 -174.79854004 191.28809082 -174.8215332 192.07641602 C-174.85642671 193.57651803 -174.86526769 195.07751705 -174.84448242 196.57788086 C-174.890625 198.66015625 -174.890625 198.66015625 -175.625 202.3125 C-178.52734375 204.62109375 -178.52734375 204.62109375 -181.625 206.3125 C-187.38207009 213.78113147 -187.38466471 221.12469269 -186.625 230.3125 C-185.26899554 240.63937551 -182.05364344 250.59657544 -178.75 260.4375 C-178.43482422 261.39712646 -178.11964844 262.35675293 -177.79492188 263.34545898 C-174.78302766 271.95938591 -170.73435751 278.80730139 -162.625 283.3125 C-159.20267028 284.45327657 -156.53826783 284.41065117 -152.9375 284.375 C-151.16826172 284.36146484 -151.16826172 284.36146484 -149.36328125 284.34765625 C-148.45964844 284.33605469 -147.55601562 284.32445312 -146.625 284.3125 C-146.36396484 284.99650879 -146.10292969 285.68051758 -145.83398438 286.38525391 C-132.51104084 321.07507229 -114.48483607 348.66531519 -79.67480469 364.41748047 C-69.86567719 368.7005035 -60.03337427 371.82706318 -49.625 374.3125 C-49.55058011 378.49337152 -49.49627182 382.6738873 -49.46020508 386.85522461 C-49.4451624 388.27619141 -49.42472296 389.69711213 -49.39868164 391.11791992 C-49.36209653 393.16596886 -49.34522903 395.2134015 -49.33203125 397.26171875 C-49.30846558 399.10769653 -49.30846558 399.10769653 -49.28442383 400.9909668 C-49.74183402 405.45194572 -51.16739785 408.11447083 -54.62109375 410.953125 C-59.14748907 413.00148075 -63.85673627 413.95904147 -68.6875 415.0625 C-97.80728501 422.0552971 -126.06553688 434.05449889 -150.625 451.3125 C-152.3719136 452.48378305 -154.1216667 453.65084883 -155.875 454.8125 C-156.60203125 455.2971875 -157.3290625 455.781875 -158.078125 456.28125 C-158.58859375 456.6215625 -159.0990625 456.961875 -159.625 457.3125 C-176.40814717 444.01676004 -192.10064679 428.71234924 -204.625 411.3125 C-205.47676801 410.16585128 -206.32965463 409.02003275 -207.18359375 407.875 C-213.23103133 399.68339798 -218.61598412 391.17346602 -223.625 382.3125 C-224.0271875 381.60528809 -224.429375 380.89807617 -224.84375 380.16943359 C-237.8691741 357.03404164 -246.61801461 331.86287591 -251.9375 305.875 C-252.08485596 305.15610596 -252.23221191 304.43721191 -252.3840332 303.6965332 C-255.35789088 288.05024391 -255.99800362 272.57681954 -255.9375 256.6875 C-255.93534485 255.66959381 -255.9331897 254.65168762 -255.93096924 253.60293579 C-255.88129854 238.99386477 -255.63040191 224.66174147 -252.625 210.3125 C-252.42632324 209.33764648 -252.22764648 208.36279297 -252.02294922 207.35839844 C-241.90232806 158.9765226 -219.9858123 114.98821731 -185.625 79.3125 C-184.99287598 78.65314453 -184.36075195 77.99378906 -183.70947266 77.31445312 C-174.56502521 67.82619695 -165.26765991 59.0862956 -154.625 51.3125 C-153.47394983 50.45443848 -152.32290823 49.59636549 -151.171875 48.73828125 C-142.98224019 42.70072604 -134.47961724 37.31792698 -125.625 32.3125 C-124.91778809 31.9103125 -124.21057617 31.508125 -123.48193359 31.09375 C-100.34654164 18.0683259 -75.17537591 9.31948539 -49.1875 4 C-48.46860596 3.85264404 -47.74971191 3.70528809 -47.0090332 3.5534668 C-31.36274391 0.57960912 -15.88931954 -0.06050362 0 0 Z " fill="#239ABF" transform="translate(255.625,-0.3125)"/>
<path d="M0 0 C1.31446188 0.45757842 2.6295898 0.91324716 3.9453125 1.3671875 C37.24230341 13.08599337 67.15674962 34.30981896 89 62 C89.74507813 62.93972656 90.49015625 63.87945312 91.2578125 64.84765625 C103.87069018 81.17408154 122.54648362 107.71708417 121.3828125 129.08984375 C120.73726321 132.31100297 119.4826389 133.90935672 117 136 C113.75 136.8125 113.75 136.8125 111 137 C111.144375 137.55042969 111.28875 138.10085937 111.4375 138.66796875 C112.93820996 145.38989877 113.28045 152.01362456 113.375 158.875 C113.40078125 159.79047607 113.4265625 160.70595215 113.453125 161.64916992 C113.46566325 165.91099901 113.38970835 168.34827497 111.1640625 172.0703125 C107.42664187 175.40295833 104.12674234 175.11016577 99.3125 175.0625 C98.13300781 175.05347656 96.95351563 175.04445312 95.73828125 175.03515625 C94.83464844 175.02355469 93.93101562 175.01195312 93 175 C93.02320313 176.17433594 93.04640625 177.34867188 93.0703125 178.55859375 C93.24645817 191.61931743 92.21578438 204.12449618 90 217 C86.45849107 217.08761663 82.91726367 217.14059739 79.375 217.1875 C78.37597656 217.21263672 77.37695312 217.23777344 76.34765625 217.26367188 C69.27263351 217.33395356 64.93596737 216.44663948 59.375 211.8125 C52.74182882 203.95742886 52.46518927 197.46837563 52.75 187.5 C52.76804687 186.29601562 52.78609375 185.09203125 52.8046875 183.8515625 C52.85153446 180.90020395 52.91711995 177.95052964 53 175 C52.45214844 175.01595215 51.90429688 175.0319043 51.33984375 175.04833984 C43.50044765 175.17102958 35.79060131 174.422703 28 173.625 C26.62022541 173.48687351 25.24042374 173.34901726 23.8605957 173.21142578 C19.90627541 172.81511013 15.95309898 172.4083159 12 172 C10.95763184 171.89365234 9.91526367 171.78730469 8.84130859 171.67773438 C6.28938551 171.41590733 3.73826668 171.14783517 1.1875 170.875 C0.46626953 170.79975098 -0.25496094 170.72450195 -0.99804688 170.64697266 C-5.76311009 170.11844496 -5.76311009 170.11844496 -8 169 C-10.18476842 168.69249213 -12.37473211 168.42161928 -14.56640625 168.16796875 C-23.15610567 167.09517509 -31.51454402 165.28105655 -39.9375 163.3125 C-40.70034302 163.13570709 -41.46318604 162.95891418 -42.24914551 162.77676392 C-89.91204307 151.70069036 -135.30021529 133.88031115 -178 110 C-178.00142502 111.11784882 -178.00285004 112.23569763 -178.00431824 113.38742065 C-178.02102791 123.95069533 -178.06392275 134.51358673 -178.13209057 145.07665825 C-178.16630028 150.50656472 -178.19146122 155.93619162 -178.19555664 161.36621094 C-178.19985245 166.61197126 -178.22842173 171.85710156 -178.27343178 177.10266495 C-178.2863658 179.09836271 -178.29072907 181.09413602 -178.28615379 183.08987045 C-178.24913266 204.15233527 -178.24913266 204.15233527 -184 211 C-188.93194533 214.99295416 -193.48055606 217.13648148 -199.88671875 217.09765625 C-200.82451172 217.09443359 -201.76230469 217.09121094 -202.72851562 217.08789062 C-203.70498047 217.07951172 -204.68144531 217.07113281 -205.6875 217.0625 C-206.67556641 217.05798828 -207.66363281 217.05347656 -208.68164062 217.04882812 C-211.12115474 217.03704303 -213.56054689 217.02059011 -216 217 C-218.58622623 203.89645374 -219.14456372 191.06909682 -219.0625 177.75 C-219.05746923 176.31119949 -219.05290914 174.87239726 -219.04882812 173.43359375 C-219.03882253 169.95564995 -219.01922701 166.47795305 -219 163 C-225.6 163 -232.2 163 -239 163 C-239.91378079 136.95724762 -233.27112785 112.36492192 -222 89 C-221.70399902 88.38205566 -221.40799805 87.76411133 -221.10302734 87.12744141 C-201.14103606 46.09266192 -164.05246164 13.99560449 -121.078125 -1.02099609 C-114.1251404 -3.30525868 -107.10537505 -5.25111904 -100 -7 C-99.22462891 -7.19352051 -98.44925781 -7.38704102 -97.65039062 -7.58642578 C-66.77972385 -14.87262689 -29.43769726 -10.94898762 0 0 Z " fill="#B24A47" transform="translate(319,39)"/>
<path d="M0 0 C0.25652344 0.72703125 0.51304687 1.4540625 0.77734375 2.203125 C6.70061784 17.75919838 16.67271341 28.75386207 31.75 35.9375 C38.85855584 39.05587591 45.61939706 40.35521541 53.3125 40.25 C54.05669189 40.24105713 54.80088379 40.23211426 55.56762695 40.22290039 C71.51553562 39.88931999 85.50542417 34.35464186 97 23 C103.07964364 16.05183584 106.86326077 8.64111335 110 0 C147.42753566 6.46475616 183.86157748 21.83191749 214 45 C212.90466726 48.28599821 212.41807102 48.69907894 209.7109375 50.6015625 C208.68154053 51.32980225 208.68154053 51.32980225 207.63134766 52.07275391 C206.88675293 52.58499512 206.1421582 53.09723633 205.375 53.625 C204.60591309 54.15915527 203.83682617 54.69331055 203.04443359 55.24365234 C195.88219471 60.16833646 188.5731949 64.73753187 181 69 C180.29713867 69.39928711 179.59427734 69.79857422 178.87011719 70.20996094 C152.66264948 84.96678122 123.7200985 94.50499941 94 99 C92.31741089 99.26490234 92.31741089 99.26490234 90.60083008 99.53515625 C78.96655216 101.19581913 67.42700733 101.39766291 55.6875 101.375 C54.67487091 101.37478851 53.66224182 101.37457703 52.618927 101.37435913 C36.40941877 101.3406376 20.89984529 100.37698285 5 97 C3.6382666 96.72712158 3.6382666 96.72712158 2.24902344 96.44873047 C-36.81821937 88.52625046 -72.53259687 71.25612324 -104 47 C-102.49016652 42.64929562 -99.20235184 40.75569282 -95.5 38.375 C-94.8385498 37.9433252 -94.17709961 37.51165039 -93.49560547 37.06689453 C-67.8016887 20.54980391 -31.17572232 0 0 0 Z " fill="#F0F3DE" transform="translate(201,411)"/>
<path d="M0 0 C1.52657227 0.04060547 1.52657227 0.04060547 3.08398438 0.08203125 C5.57905513 0.15231493 8.06963847 0.25062799 10.5625 0.375 C10.592229 1.642229 10.592229 1.642229 10.62255859 2.93505859 C11.11191404 24.5394389 11.11191404 24.5394389 13.16015625 46.0390625 C13.50119471 48.86670178 13.64416351 51.53310994 13.5625 54.375 C30.17134047 55.05038891 30.17134047 55.05038891 44.5625 48.375 C48.31777749 43.1529553 50.14654365 37.75299729 50.5625 31.375 C50.8925 31.375 51.2225 31.375 51.5625 31.375 C51.63243164 32.05788086 51.70236328 32.74076172 51.77441406 33.44433594 C56.02017621 74.19546134 65.07314229 116.13760521 97.5625 144.375 C112.06734022 155.91123303 127.91034108 163.869554 145.5625 169.375 C146.51253906 169.68050781 147.46257812 169.98601562 148.44140625 170.30078125 C171.15779094 177.0636744 193.41922723 176.31428047 216.5625 172.375 C216.58231934 173.25760498 216.60213867 174.14020996 216.62255859 175.04956055 C216.70087866 178.33921957 216.78757855 181.62843964 216.87988281 184.91772461 C216.91805149 186.3385373 216.95292513 187.75944263 216.984375 189.18041992 C217.03029065 191.22868855 217.08823805 193.27632608 217.1484375 195.32421875 C217.1798584 196.55487061 217.2112793 197.78552246 217.24365234 199.0534668 C217.55116942 202.25696588 218.08767121 204.52787938 219.5625 207.375 C220.2225 207.705 220.8825 208.035 221.5625 208.375 C221.11573673 218.42717353 214.9652293 226.84526262 208.2421875 233.953125 C193.96750351 246.85444289 177.68054334 251.38758617 158.68115234 250.54980469 C145.22629817 249.43967844 131.43433374 241.36379122 122.5625 231.375 C111.2725701 216.24073193 111.2725701 216.24073193 111.75 209.875 C112.5625 207.375 112.5625 207.375 114.08129883 205.15942383 C115.91849417 201.7057873 115.99123785 199.22432102 116.07421875 195.32421875 C116.09216995 194.66541214 116.11012115 194.00660553 116.12861633 193.32783508 C116.18246656 191.23945369 116.21653108 189.1512974 116.25 187.0625 C116.2831957 185.6399428 116.31768744 184.21741521 116.35351562 182.79492188 C116.43817601 179.32183085 116.5051077 175.84866087 116.5625 172.375 C115.4178125 172.26285156 114.273125 172.15070313 113.09375 172.03515625 C108.55393657 171.46169563 104.38782741 170.27785402 100.0625 168.8125 C98.89726807 168.41877197 98.89726807 168.41877197 97.70849609 168.01708984 C79.6554545 161.69870864 64.15688558 151.80457661 50.5625 138.375 C49.70785156 137.54484375 48.85320312 136.7146875 47.97265625 135.859375 C33.98632667 121.45323458 24.01120891 101.89620028 19.5625 82.375 C18.94536133 82.53508545 18.32822266 82.6951709 17.69238281 82.86010742 C11.58397015 84.33679728 5.93374221 83.90060065 0.46875 80.734375 C-13.27217746 70.93551689 -18.33070916 46.79601099 -21.15625 30.90234375 C-22.07147018 22.67807354 -22.89459001 13.68658678 -18.4375 6.375 C-13.19010894 -0.15703013 -7.99152028 -0.40555536 0 0 Z " fill="#FAB68A" transform="translate(89.4375,201.625)"/>
<path d="M0 0 C0.33 0.66 0.66 1.32 1 2 C0.35264893 2.11480713 -0.29470215 2.22961426 -0.96166992 2.34790039 C-22.30245663 6.19981736 -41.93195879 11.5490518 -61 22 C-62.21349101 22.64462663 -63.42703213 23.28915892 -64.640625 23.93359375 C-76.39741281 30.29495618 -86.51794895 38.27736589 -96.13134766 47.5090332 C-98.43809793 49.70256629 -99.9317158 50.9772386 -103 52 C-103.68303236 53.32502416 -104.34648279 54.6601726 -105 56 C-106.44354992 57.61587193 -107.92847339 59.19509898 -109.4375 60.75 C-138.95297154 92.29205247 -151.79888048 135.06020108 -152.31640625 177.390625 C-152.33703759 178.8307954 -152.35803537 180.27096059 -152.37937927 181.71112061 C-152.43396327 185.45920531 -152.48364684 189.20733868 -152.53222656 192.95550537 C-152.58291371 196.79720268 -152.63835054 200.63883133 -152.69335938 204.48046875 C-152.80015924 211.98692206 -152.90132959 219.49343462 -153 227 C-158.61 227 -164.22 227 -170 227 C-172.5876464 213.88925822 -173.14459254 201.07377351 -173.0625 187.75 C-173.05746923 186.31119949 -173.05290914 184.87239726 -173.04882812 183.43359375 C-173.03882253 179.95564995 -173.01922701 176.47795305 -173 173 C-179.6 173 -186.2 173 -193 173 C-193.91378079 146.95724762 -187.27112785 122.36492192 -176 99 C-175.70399902 98.38205566 -175.40799805 97.76411133 -175.10302734 97.12744141 C-155.14103606 56.09266192 -118.05246164 23.99560449 -75.078125 8.97900391 C-68.1251404 6.69474132 -61.10537505 4.74888096 -54 3 C-53.22462891 2.80647949 -52.44925781 2.61295898 -51.65039062 2.41357422 C-34.87233417 -1.54644046 -17.11540231 -0.2798745 0 0 Z " fill="#9D3C34" transform="translate(273,29)"/>
<path d="M0 0 C0.45439453 1.16015625 0.45439453 1.16015625 0.91796875 2.34375 C3.46234168 8.66945255 6.19256069 14.34323302 10 20 C9.05382812 20.44988281 8.10765625 20.89976562 7.1328125 21.36328125 C-13.86635303 31.50785763 -32.92504506 44.0811618 -50 60 C-52.35695513 62.06601848 -54.7201756 64.12436255 -57.08984375 66.17578125 C-58.98673341 67.98733027 -60.49227811 69.85894039 -62 72 C-66.62181637 71.40904256 -70.26353441 69.46534013 -74.25 67.1875 C-74.93803711 66.79804199 -75.62607422 66.40858398 -76.33496094 66.00732422 C-86.02504819 60.39738873 -95.08327325 53.75648883 -104 47 C-102.49016652 42.64929562 -99.20235184 40.75569282 -95.5 38.375 C-94.8385498 37.9433252 -94.17709961 37.51165039 -93.49560547 37.06689453 C-67.8016887 20.54980391 -31.17572232 0 0 0 Z " fill="#DCE4DF" transform="translate(201,411)"/>
<path d="M0 0 C1.49158953 2.24263637 1.31823227 3.93618239 0.80078125 6.5234375 C-4.04261335 21.54616989 -15.51856476 31.36327587 -28.890625 38.66796875 C-42.6758082 44.96082665 -59.47953376 46.09888136 -73.83203125 40.9921875 C-82.83828549 37.092928 -91.21849266 31.95818461 -97.890625 24.66796875 C-98.220625 23.67796875 -98.550625 22.68796875 -98.890625 21.66796875 C-76.87823659 11.37646248 -53.83048068 4.72800897 -29.890625 0.66796875 C-27.98796875 0.33152344 -27.98796875 0.33152344 -26.046875 -0.01171875 C-4.87085607 -3.43173951 -4.87085607 -3.43173951 0 0 Z " fill="#FABD94" transform="translate(309.890625,408.33203125)"/>
<path d="M0 0 C9.67598925 2.37702084 19.29199929 4.9492691 28.90429688 7.5703125 C30.00708984 7.869375 31.10988281 8.1684375 32.24609375 8.4765625 C33.23279053 8.74549316 34.2194873 9.01442383 35.23608398 9.29150391 C37.81302764 9.95207192 40.3866184 10.50576175 43 11 C42.34 11.33 41.68 11.66 41 12 C40.96261719 13.11246094 40.92523438 14.22492188 40.88671875 15.37109375 C40.41859704 27.82697887 39.68879181 40.27405533 38.86758423 52.71121216 C38.74783212 54.56569558 38.63433452 56.42059379 38.52719116 58.27584839 C38.37262816 60.92492027 38.19483486 63.57151774 38.01171875 66.21875 C37.96990479 67.01491226 37.92809082 67.81107452 37.88500977 68.63136292 C37.40360484 75.01576433 35.26944722 78.90076133 30.5 83.3125 C26.09059356 86.28884934 22.29398055 86.36510211 17 86 C12.13036979 84.24693312 8.28192127 81.72503545 6 77 C3.10609202 63.96649825 3.03831129 50.06027559 2.14013672 36.79003906 C1.87325557 32.84924155 1.59931183 28.90898201 1.32421875 24.96875 C1.1506351 22.45575722 0.97744376 19.9427373 0.8046875 17.4296875 C0.72346649 16.25574432 0.64224548 15.08180115 0.55856323 13.87228394 C0.48493561 12.7798941 0.41130798 11.68750427 0.33544922 10.56201172 C0.27042206 9.60575897 0.2053949 8.64950623 0.13839722 7.66427612 C0.00538798 5.10372367 -0.02496964 2.56344027 0 0 Z " fill="#FABC94" transform="translate(235,190)"/>
<path d="M0 0 C1.52657227 0.04060547 1.52657227 0.04060547 3.08398438 0.08203125 C5.57905513 0.15231493 8.06963847 0.25062799 10.5625 0.375 C10.57708252 1.16745117 10.59166504 1.95990234 10.60668945 2.77636719 C11.26123802 37.68865937 11.26123802 37.68865937 17.38012695 71.9621582 C18.36241993 75.75556605 18.88196563 78.62013769 17.5625 82.375 C13.54663132 84.38293434 8.67851994 83.98568958 4.4375 82.76171875 C-3.26430833 79.34704982 -7.7110695 73.69278674 -10.80517578 65.96044922 C-25.55413537 26.56332507 -25.55413537 26.56332507 -20.375 9.875 C-15.90140954 0.79569886 -9.51235089 -0.48273479 0 0 Z " fill="#F9AC7D" transform="translate(89.4375,201.625)"/>
<path d="M0 0 C4.89326308 1.39807517 7.0857479 3.90429435 10 8 C16.75038239 21.50076479 9.52336083 41.86601033 5.15039062 55.21557617 C4.81201172 56.21693604 4.47363281 57.2182959 4.125 58.25 C3.80982422 59.20173096 3.49464844 60.15346191 3.16992188 61.1340332 C0.34178002 69.13316889 -3.73032348 76.27471026 -11 81 C-16.7153303 83.59787741 -23.04684272 83.98438576 -29 82 C-28.82984375 81.29101562 -28.6596875 80.58203125 -28.484375 79.8515625 C-23.38052899 57.42721778 -21.17542351 34.91120224 -20 12 C-19.11957031 11.96261719 -18.23914063 11.92523438 -17.33203125 11.88671875 C-15.58986328 11.78810547 -15.58986328 11.78810547 -13.8125 11.6875 C-12.08966797 11.60048828 -12.08966797 11.60048828 -10.33203125 11.51171875 C-6.82004201 10.97236284 -4.83368164 10.10619805 -2 8 C-0.99065319 5.99411525 -0.99065319 5.99411525 -0.6875 3.8125 C-0.460625 2.554375 -0.23375 1.29625 0 0 Z " fill="#F9BC94" transform="translate(432,202)"/>
<path d="M0 0 C9.8640483 7.52741365 18.88397932 16.60438746 22.45703125 28.875 C22.45703125 32.53687583 22.20920633 34.03924991 19.76953125 36.75 C16.7209244 38.23310604 14.80960201 38.36391657 11.45703125 37.875 C8.08998686 35.63030374 6.78488593 32.61416833 5.08203125 29.0625 C-0.7378485 17.05238452 -10.19364456 11.22178379 -22.54296875 6.875 C-31.33972108 3.94274922 -43.60153777 4.85474384 -52.0234375 8.5546875 C-63.63792265 14.64103786 -70.45000193 21.23459335 -76.40234375 32.9296875 C-77.59588141 34.96524146 -78.71935279 36.37917324 -80.54296875 37.875 C-83.84619053 38.29668789 -85.85043162 38.21190996 -88.85546875 36.75 C-91.20123421 34.14359393 -91.31201731 32.35989227 -91.54296875 28.875 C-86.43422575 13.47499854 -74.78113421 2.10500889 -60.54296875 -5.125 C-40.58006489 -13.52431037 -17.96933045 -12.50040379 0 0 Z " fill="#FBBD94" transform="translate(290.54296875,295.125)"/>
<path d="M0 0 C2.1953125 0.48046875 2.1953125 0.48046875 5.2578125 2.54296875 C8.33963318 4.57565899 8.91876772 4.75807496 12.3828125 4.41796875 C16.08488985 3.86849981 16.08488985 3.86849981 17.66015625 1.953125 C19.66468722 0.03020344 20.82668541 0.01792441 23.5703125 -0.01953125 C27.06014556 0.12279473 28.1886653 0.47626338 31.2578125 2.41796875 C33.90070267 6.59544032 34.06350696 9.66520501 33.1953125 14.48046875 C30.74285747 21.77260897 26.05368733 26.96335345 19.1953125 30.48046875 C13.20702275 32.28325914 6.71019303 32.51216499 0.9453125 29.91796875 C-5.23928365 26.35714066 -9.16589869 21.1508386 -11.328125 14.390625 C-12.51098008 9.64950913 -12.32886726 7.39355607 -9.8671875 3.10546875 C-6.92306767 -0.07284243 -4.19448096 -0.25609867 0 0 Z " fill="#391640" transform="translate(316.8046875,217.51953125)"/>
<path d="M0 0 C3.12036672 0.69546635 5.3841926 2.6353011 7.98046875 4.44140625 C12.01572005 5.11394813 13.43394928 4.83004232 16.79296875 2.44140625 C20.96731218 -0.17778963 24.1727817 -0.40700911 28.98046875 0.44140625 C31.54296875 1.75390625 31.54296875 1.75390625 32.98046875 4.44140625 C33.92270185 10.62047174 33.47824732 16.20847987 30.3125 21.65625 C26.59364111 26.64017526 22.15676326 30.20614735 15.98046875 31.44140625 C9.82496633 32.0730343 4.45433265 31.44242812 -1.01953125 28.44140625 C-5.97578268 24.27364937 -10.42763837 18.95670335 -11.29296875 12.35546875 C-11.48082362 8.12150904 -11.39490318 6.01619451 -9.01953125 2.37890625 C-5.86792468 0.34349367 -3.75621833 -0.21846673 0 0 Z " fill="#391540" transform="translate(173.01953125,217.55859375)"/>
</svg>
